<?xml version="1.0" standalone="no"?>
<!DOCTYPE svg PUBLIC "-//W3C//DTD SVG 20010904//EN"
 "http://www.w3.org/TR/2001/REC-SVG-20010904/DTD/svg10.dtd">
<svg version="1.0" xmlns="http://www.w3.org/2000/svg"
 width="1600.000000pt" height="1069.000000pt" viewBox="0 0 1600.000000 1069.000000"
 preserveAspectRatio="xMidYMid meet">

<g transform="translate(0.000000,1069.000000) scale(0.100000,-0.100000)"
fill="#000000" stroke="none">
<path d="M0 9726 l0 -965 58 24 c31 13 109 46 173 73 64 28 158 64 209 82 51
17 114 42 139 55 99 51 313 122 401 132 30 3 105 26 165 51 61 24 128 48 150
52 70 13 198 50 260 75 76 30 122 41 210 49 39 4 99 16 134 27 87 26 161 34
203 20 19 -6 73 -12 119 -12 163 0 249 -29 324 -109 88 -92 134 -150 146 -184
7 -20 16 -36 21 -36 4 0 10 -16 14 -35 3 -19 10 -35 15 -35 5 0 9 -10 8 -22 0
-22 -1 -22 -9 -3 -8 21 -13 15 -23 -30 -4 -18 -5 -18 -6 3 0 12 -5 22 -10 22
-5 0 -16 6 -23 13 -28 26 -68 47 -102 51 -64 8 -190 -15 -331 -60 -77 -25
-162 -52 -189 -60 -28 -9 -66 -26 -86 -39 -19 -12 -51 -26 -70 -30 -19 -4 -39
-10 -45 -13 -5 -4 -14 -7 -20 -9 -63 -14 -140 -57 -130 -72 2 -4 94 -8 205 -9
226 -3 245 2 284 70 26 44 31 47 90 41 28 -2 62 -5 76 -5 29 -1 99 25 109 39
4 7 23 7 60 0 62 -13 111 -52 111 -89 0 -36 32 -49 121 -49 44 0 84 3 90 7 10
6 379 18 549 17 97 0 137 -22 172 -96 14 -28 29 -63 33 -77 7 -24 48 -82 88
-125 36 -38 76 -102 83 -131 8 -33 41 -74 61 -74 7 0 41 9 77 21 61 20 67 21
128 5 35 -9 82 -16 104 -16 72 0 145 -12 141 -24 -2 -7 -30 -10 -83 -7 -145 8
-194 6 -210 -10 -12 -13 -13 -18 -2 -26 28 -23 198 -54 298 -54 85 -1 100 -3
105 -18 6 -18 0 -61 -35 -291 -12 -74 -28 -182 -36 -240 -19 -141 -24 -161
-45 -189 -11 -14 -18 -38 -18 -60 1 -20 -4 -48 -10 -63 -7 -19 -7 -36 -1 -53
7 -19 6 -32 -5 -49 -9 -13 -15 -43 -16 -67 0 -90 -6 -155 -16 -179 -14 -33 0
-47 29 -28 43 29 350 276 368 297 3 3 23 20 45 36 22 16 51 41 65 55 14 14 39
34 55 44 36 23 118 91 197 162 69 63 98 72 138 44 15 -11 32 -20 37 -20 4 0
16 -12 25 -28 10 -15 51 -65 92 -111 41 -46 73 -88 70 -92 -2 -4 2 -11 9 -16
7 -4 24 -23 38 -42 13 -19 40 -52 59 -72 19 -21 45 -53 58 -71 44 -63 54 -75
48 -55 -3 9 -1 17 5 17 6 0 7 5 4 10 -4 6 -11 7 -17 4 -5 -4 -3 5 7 19 9 14
22 28 29 30 7 3 22 23 32 44 11 21 29 56 41 78 22 42 82 177 103 233 17 43 58
76 120 97 47 16 52 21 90 93 22 42 71 114 108 158 75 91 98 122 127 170 11 18
37 57 57 86 45 65 67 124 74 193 8 86 25 156 40 162 8 3 14 11 14 18 0 16 83
70 139 90 56 19 121 19 149 -1 12 -8 31 -32 41 -52 11 -20 31 -47 45 -59 25
-22 32 -69 10 -67 -17 1 -102 42 -108 53 -10 15 -127 2 -148 -17 -10 -8 -18
-20 -18 -26 0 -33 -99 -229 -135 -268 -63 -67 -96 -114 -180 -252 -43 -71 -87
-138 -97 -148 -10 -10 -38 -59 -63 -110 -25 -51 -51 -98 -56 -105 -6 -6 -34
-19 -63 -27 -51 -15 -126 -75 -126 -101 0 -11 -10 -24 -50 -72 -5 -7 -10 -19
-10 -26 0 -8 -7 -20 -15 -27 -8 -7 -15 -21 -15 -31 0 -11 -8 -27 -19 -38 -19
-19 -51 -77 -51 -94 0 -5 -11 -20 -24 -32 -22 -21 -23 -26 -13 -56 7 -19 21
-47 31 -64 26 -40 59 -94 80 -128 10 -16 15 -31 12 -35 -3 -3 -6 0 -6 6 0 7
-5 12 -11 12 -5 0 -7 -5 -3 -11 4 -8 -1 -9 -17 -3 -13 4 -30 7 -36 7 -7 0 -13
3 -13 7 0 14 -134 74 -138 62 -4 -13 -32 9 -32 26 0 5 -12 14 -26 20 -20 10
-28 9 -40 -3 -19 -19 -41 -19 -60 -1 -18 19 -18 34 1 52 8 9 15 29 15 46 0 25
3 29 20 25 18 -5 20 0 21 41 1 26 1 50 0 54 0 4 5 5 13 2 9 -3 15 5 19 23 7
35 2 40 -19 22 -14 -12 -16 -11 -12 6 2 11 10 19 17 17 9 -2 9 3 0 20 -15 30
-24 38 -16 15 4 -10 3 -16 -2 -13 -5 3 -11 18 -14 33 -5 28 -14 38 -71 88 -28
24 -36 29 -36 21 0 -9 49 -54 53 -49 3 3 5 -4 4 -16 -1 -22 -22 -24 -22 -2 0
12 -23 31 -37 31 -5 0 -8 -7 -8 -15 0 -8 -4 -15 -8 -15 -5 0 -19 -10 -32 -22
-22 -21 -23 -21 -38 -2 -14 18 -14 17 -10 -8 4 -20 1 -28 -9 -28 -9 0 -12 -7
-9 -17 6 -19 -25 -63 -43 -63 -7 0 -9 10 -5 26 5 19 4 25 -5 20 -6 -4 -11 -16
-11 -27 0 -14 -7 -19 -25 -19 -16 0 -25 -6 -25 -16 0 -20 -39 -53 -62 -54 -10
0 -18 -6 -18 -14 0 -14 -28 -31 -45 -27 -5 2 -7 -1 -3 -4 12 -12 -65 -75 -91
-75 -27 0 -110 -66 -131 -104 -7 -14 -18 -26 -23 -26 -25 0 -87 -35 -98 -57
-7 -12 -17 -23 -23 -23 -15 -1 -56 -36 -56 -47 0 -5 -11 -20 -25 -33 -14 -13
-25 -34 -25 -46 0 -19 9 -26 52 -39 106 -31 151 -81 164 -179 5 -40 12 -71 37
-161 8 -27 11 -51 6 -53 -17 -7 -9 -53 17 -104 36 -72 105 -178 116 -178 4 0
8 -6 8 -14 0 -14 -16 -23 -61 -31 -40 -8 -52 -53 -24 -89 8 -11 15 -30 15 -43
0 -13 5 -23 10 -23 6 0 10 -16 10 -37 0 -35 27 -203 38 -233 3 -8 4 -21 3 -28
-1 -8 4 -28 12 -45 15 -32 20 -57 18 -89 -2 -32 -20 -19 -27 20 -3 20 -13 53
-21 72 -8 19 -19 44 -23 55 -5 11 -11 34 -13 50 -3 17 -11 48 -17 70 -6 22
-14 52 -17 68 -3 15 -9 27 -13 27 -4 0 -4 -17 1 -37 5 -21 16 -67 25 -103 8
-36 18 -75 21 -87 3 -14 -1 -29 -11 -39 -10 -9 -20 -29 -23 -45 -3 -16 -11
-29 -17 -29 -6 0 -20 -3 -31 -6 -14 -4 -30 3 -48 22 l-27 27 0 -24 -1 -24 -14
25 c-8 14 -21 45 -29 70 -8 25 -22 63 -31 85 -9 22 -18 48 -21 57 -5 15 -9 14
-28 -7 -11 -13 -30 -26 -41 -29 -18 -5 -24 4 -49 71 -15 43 -34 98 -41 123 -7
25 -20 59 -29 75 -9 17 -16 35 -16 40 0 10 -67 218 -95 293 -8 24 -13 47 -10
52 2 4 -13 40 -35 80 -22 41 -43 92 -47 114 -3 23 -13 55 -21 71 -20 41 -91
144 -119 175 -21 23 -47 93 -83 230 -10 35 -24 67 -31 71 -59 28 -74 34 -91
31 -11 -2 -25 2 -33 8 -11 9 -25 7 -61 -9 -25 -12 -53 -21 -61 -21 -8 0 -11
-5 -8 -10 4 -6 -7 -15 -24 -21 -21 -7 -33 -21 -41 -44 -16 -49 -35 -61 -73
-47 -17 6 -33 10 -35 8 -6 -7 14 -93 54 -241 42 -154 53 -185 66 -185 5 0 7
-4 4 -8 -3 -4 0 -28 6 -53 24 -105 53 -265 50 -280 -3 -17 -56 -34 -73 -23 -5
3 -9 0 -9 -6 0 -7 -7 -9 -16 -6 -10 4 -21 0 -28 -9 -6 -9 -29 -20 -51 -25 -88
-21 -120 -21 -180 -2 -96 30 -99 18 -17 -64 39 -39 42 -59 7 -50 -37 9 -30 -8
15 -39 43 -30 56 -48 16 -21 -28 18 -76 45 -156 89 -58 31 -99 58 -139 92 -42
35 -51 46 -51 60 0 15 -27 28 -42 19 -5 -3 -18 2 -28 11 -13 12 -28 15 -44 11
-13 -3 -35 -2 -48 3 -22 8 -22 9 10 15 41 10 31 29 -11 21 -60 -12 -67 -16
-67 -39 0 -37 -40 -61 -118 -71 -35 -5 -39 -14 -13 -31 18 -13 21 -22 16 -43
-9 -35 -24 -51 -47 -51 -21 0 -41 -16 -51 -42 -4 -12 -2 -15 8 -12 10 4 12 0
8 -15 -3 -11 -11 -17 -18 -15 -17 7 -27 46 -15 58 12 12 13 26 1 26 -5 0 -14
-15 -20 -32 -10 -27 -9 -35 4 -44 8 -6 15 -18 15 -27 0 -9 9 -19 20 -22 11 -3
20 -11 20 -16 0 -5 6 -9 14 -9 8 0 16 -12 18 -27 3 -24 8 -27 50 -30 26 -2
105 5 175 17 70 12 180 29 243 37 63 8 140 18 170 22 54 8 104 -1 70 -13 -18
-6 -150 -27 -205 -32 -22 -2 -103 -13 -179 -24 -76 -12 -171 -25 -210 -30
-216 -28 -307 -41 -461 -69 -177 -31 -224 -39 -415 -72 -63 -11 -149 -26 -190
-34 -41 -8 -120 -21 -175 -30 -55 -9 -113 -21 -130 -25 -16 -5 -50 -11 -75
-15 -92 -12 -260 -48 -260 -55 0 -3 32 -29 70 -59 72 -55 91 -81 43 -59 -55
25 -208 100 -223 109 -8 5 -35 18 -60 30 -25 11 -58 28 -75 37 -47 25 -55 29
-138 66 -43 20 -80 36 -82 36 -3 0 -24 9 -48 19 -64 29 -187 69 -235 76 -23 4
-42 12 -42 18 -1 13 -81 77 -97 77 -5 0 -21 9 -34 21 l-24 21 -3 -868 c-1
-477 0 -869 2 -871 2 -3 42 3 88 13 45 9 114 18 152 21 37 2 76 8 85 13 10 5
65 20 123 33 57 13 115 31 129 39 28 18 56 25 125 33 151 17 333 72 424 128
84 51 192 70 308 54 104 -14 135 -13 217 6 77 17 204 62 219 77 6 6 25 10 43
10 18 0 52 6 75 14 24 8 67 17 96 20 30 4 70 13 90 21 21 8 73 22 117 30 44 9
93 26 109 37 16 12 47 22 68 24 22 1 45 8 52 14 8 6 62 81 120 168 59 86 135
198 169 247 35 50 99 142 142 205 43 63 136 197 207 297 124 175 140 203 118
203 -5 0 -10 5 -10 10 0 6 8 10 19 10 21 0 45 23 34 33 -3 4 0 7 8 7 15 0 71
51 108 99 28 37 37 38 98 6 27 -13 68 -34 92 -45 25 -12 63 -36 85 -54 23 -18
68 -52 101 -75 33 -22 96 -68 140 -102 44 -33 94 -70 110 -82 41 -30 97 -88
91 -95 -3 -3 -24 8 -47 24 -23 16 -49 34 -58 39 -9 6 -18 12 -21 15 -16 17
-189 140 -196 140 -5 0 -25 11 -44 23 -31 21 -63 34 -108 43 -7 1 -18 -8 -24
-21 -6 -14 -16 -21 -22 -18 -19 12 158 -161 204 -198 57 -46 188 -126 232
-141 18 -6 49 -24 68 -40 40 -32 55 -35 68 -11 9 15 12 15 34 1 58 -38 298
-158 316 -158 11 0 22 -7 26 -15 5 -13 32 -14 183 -10 98 2 228 11 288 19 61
8 146 18 190 21 44 4 94 11 110 16 17 4 85 15 153 23 68 8 138 20 155 25 18 6
104 22 192 36 88 14 187 34 220 44 90 29 249 91 260 102 5 5 19 9 31 9 30 0
36 12 25 43 -12 30 3 40 34 24 14 -7 11 -2 -7 16 -31 29 -40 81 -12 70 14 -5
15 -3 6 14 -6 11 -8 23 -5 27 3 3 -5 16 -19 28 -24 22 -31 41 -63 167 -8 30
-19 57 -25 61 -6 4 -8 13 -5 22 3 8 1 28 -6 44 l-11 29 -13 -35 c-8 -19 -14
-27 -14 -17 -1 9 -5 17 -11 17 -9 0 -8 19 4 110 3 25 8 77 10 115 3 39 7 86
10 105 3 19 13 103 21 185 9 83 20 173 25 200 5 28 14 100 20 160 6 62 17 120
26 132 17 27 67 54 160 85 66 22 81 23 356 22 267 -1 288 0 293 17 10 30 46
69 64 69 12 0 27 23 50 75 41 94 50 101 99 87 72 -23 69 -25 116 83 23 55 55
127 71 160 15 33 41 98 57 145 15 47 44 117 63 155 18 39 45 95 58 125 46 103
181 375 203 407 12 17 52 95 89 172 38 78 74 141 81 141 26 0 64 -20 64 -34 0
-16 -154 -339 -180 -376 -10 -14 -21 -36 -25 -50 -4 -14 -20 -43 -35 -65 -15
-22 -30 -57 -34 -77 -4 -21 -13 -41 -20 -45 -16 -9 -116 -209 -116 -232 0 -9
-14 -34 -30 -55 -17 -22 -30 -48 -30 -57 0 -10 -12 -40 -28 -66 -15 -26 -63
-118 -106 -203 l-80 -155 17 -34 c9 -18 15 -37 12 -41 -3 -4 -25 3 -51 16 -43
22 -48 22 -76 8 -16 -8 -32 -23 -35 -32 -14 -43 -37 -88 -49 -95 -7 -4 -10
-15 -7 -24 4 -10 2 -14 -5 -10 -13 9 -63 -13 -56 -24 3 -5 -2 -9 -11 -9 -8 0
-18 -8 -22 -17 -3 -10 -13 -26 -22 -36 -12 -15 -13 -22 -3 -38 10 -16 10 -19
-4 -19 -10 0 -14 -5 -10 -15 3 -8 1 -15 -5 -15 -17 0 -23 32 -9 54 11 19 10
18 -14 -3 -14 -14 -26 -31 -26 -38 0 -8 -4 -11 -10 -8 -5 3 -10 3 -10 -2 0
-16 -88 -105 -98 -99 -5 3 -15 -1 -22 -10 -11 -12 -11 -17 0 -27 10 -10 12 -8
6 7 -6 17 -2 18 34 13 22 -3 53 -13 67 -22 25 -17 25 -18 8 -31 -10 -7 -22
-11 -26 -8 -5 3 -6 -2 -3 -10 3 -9 10 -16 15 -16 15 0 11 -15 -30 -101 -36
-74 -38 -84 -23 -95 14 -10 13 -12 -7 -19 -26 -8 -54 -64 -41 -81 13 -14 1
-54 -16 -54 -7 0 -17 -12 -20 -27 -4 -16 -10 -30 -14 -33 -11 -8 -22 -62 -11
-56 5 4 7 -11 5 -36 l-5 -43 17 29 c9 16 17 34 18 41 1 7 8 23 17 36 8 13 25
45 37 72 28 56 39 63 16 10 -9 -21 -18 -45 -21 -53 -3 -8 -17 -38 -30 -67 -14
-29 -22 -56 -19 -61 3 -6 -1 -15 -9 -22 -15 -13 -12 -30 6 -30 6 0 7 5 4 10
-4 6 -1 18 6 27 12 14 15 10 24 -28 10 -40 9 -50 -22 -117 -50 -110 -40 -100
27 26 33 62 73 132 89 155 15 23 40 66 55 95 15 30 29 52 32 49 6 -6 -10 -41
-46 -102 -45 -75 -80 -148 -75 -153 2 -3 12 9 22 27 10 17 21 31 26 31 11 0 8
-14 -5 -29 -11 -11 -10 -13 2 -9 8 3 42 59 75 125 33 67 69 130 79 141 11 13
15 28 11 41 -4 14 -2 21 7 21 15 0 35 40 58 115 14 44 19 50 45 53 l30 3 49
200 c35 138 54 199 63 199 8 0 67 -14 131 -31 138 -37 248 -88 311 -145 48
-43 54 -66 39 -154 -3 -19 -16 -103 -28 -187 -18 -117 -26 -150 -36 -146 -8 3
-14 9 -14 15 0 5 -4 6 -10 3 -5 -3 -15 3 -22 15 -16 26 -24 25 -33 -2 -4 -14
-8 -18 -12 -10 -7 17 -23 5 -23 -18 0 -10 -7 -21 -16 -24 -12 -4 -14 -13 -9
-29 17 -56 9 -99 -12 -64 -17 28 -121 97 -136 91 -9 -3 -24 3 -36 15 -18 18
-29 20 -78 15 -53 -7 -56 -6 -51 14 5 16 2 19 -11 15 -9 -3 -22 -10 -28 -16
-21 -15 -16 17 5 35 27 24 91 41 131 34 36 -5 37 -5 69 54 36 66 38 73 23 78
-6 2 -11 -5 -11 -15 -1 -17 -1 -17 -11 1 -9 15 -13 16 -21 5 -7 -11 -11 -11
-15 -1 -7 18 -23 4 -24 -21 -1 -17 -3 -15 -9 8 l-7 30 -13 -30 -13 -30 -7 30
-7 30 -7 -30 c-13 -50 -14 -51 -15 -12 -1 20 -6 37 -12 37 -5 0 -8 -3 -6 -7 2
-5 -2 -21 -9 -38 l-13 -30 -1 40 -2 40 -13 -30 c-9 -21 -15 -25 -18 -15 -3 8
-8 22 -10 30 -3 9 -8 0 -13 -20 -6 -28 -9 -31 -14 -15 -5 15 -11 5 -24 -40 -9
-33 -35 -111 -56 -173 -22 -62 -40 -124 -40 -136 0 -13 -23 -71 -51 -130 -28
-58 -49 -112 -46 -119 2 -6 12 3 21 21 10 19 20 31 23 28 3 -3 -11 -27 -31
-54 -32 -45 -83 -145 -100 -200 -10 -30 -2 -29 117 17 56 21 174 62 262 91 88
29 216 75 285 102 69 28 188 72 265 98 373 127 739 255 920 320 283 101 461
164 605 215 69 24 211 73 315 110 105 37 314 109 465 161 151 52 286 102 300
112 23 17 44 50 115 177 30 53 109 186 153 256 20 31 45 62 56 69 18 11 23 9
48 -21 15 -18 28 -37 28 -42 0 -5 -19 -30 -42 -57 -24 -26 -55 -71 -71 -101
-47 -93 -78 -143 -95 -159 -9 -9 -23 -26 -30 -38 -12 -21 -11 -22 27 -22 37 0
146 37 426 145 66 25 152 58 190 72 39 14 108 45 155 68 47 24 103 47 125 50
22 4 64 18 93 31 29 14 57 22 62 19 4 -3 45 55 91 127 45 73 90 141 99 151 11
12 35 19 76 22 32 2 75 7 95 10 34 7 37 5 75 -47 21 -29 44 -64 50 -78 6 -14
47 -53 92 -87 l80 -62 1 59 c0 43 7 73 27 112 25 50 134 223 175 278 11 14 31
42 44 63 31 46 61 77 75 77 20 0 114 -52 131 -74 10 -11 23 -43 30 -70 10 -42
9 -50 -4 -57 -9 -6 -13 -17 -10 -29 4 -13 -1 -26 -11 -33 -35 -26 -17 -167 21
-167 7 0 13 -5 13 -10 0 -7 -13 -8 -35 -4 -29 5 -35 3 -35 -10 0 -19 71 -55
108 -56 12 0 22 -4 22 -10 0 -5 12 -10 26 -10 14 0 40 -11 58 -25 18 -14 42
-25 54 -25 11 0 23 -4 26 -9 3 -5 20 -11 38 -14 36 -5 130 -38 138 -48 3 -3
27 -9 55 -12 27 -3 51 -10 53 -16 2 -6 13 -11 24 -11 12 0 36 -11 54 -25 18
-14 36 -25 40 -25 4 0 26 -8 48 -18 51 -24 175 -62 198 -62 9 0 24 -10 33 -22
15 -22 15 -24 -9 -42 -28 -22 -79 -42 -147 -59 -25 -7 -54 -19 -64 -27 -22
-18 -124 -22 -145 -6 -8 7 -42 23 -76 35 -86 31 -131 20 -204 -50 -9 -9 -63
-52 -119 -95 -57 -43 -121 -94 -144 -111 -23 -18 -60 -42 -82 -54 -22 -11 -76
-40 -120 -64 -84 -45 -93 -48 -347 -80 -146 -19 -148 -20 -163 -107 l-6 -38
-52 0 c-91 -1 -411 -52 -432 -70 -5 -5 -48 -11 -95 -14 -97 -6 -104 -7 -145
-23 -66 -24 -113 -33 -190 -37 -44 -2 -96 -9 -115 -14 -40 -12 -148 -49 -170
-59 -8 -3 -22 -6 -30 -7 -41 -4 -116 -19 -125 -26 -5 -4 -41 -11 -80 -15 -38
-4 -101 -18 -140 -32 -38 -14 -81 -25 -94 -24 -12 0 -28 -2 -35 -6 -20 -14
-198 -18 -274 -7 -33 5 -47 2 -62 -11 -13 -12 -29 -16 -48 -12 -25 5 -62 0
-137 -20 -11 -3 -32 -6 -46 -8 -30 -3 -137 -25 -159 -32 -8 -3 -38 -6 -67 -7
-29 -1 -55 -4 -58 -8 -3 -3 -35 -4 -69 -2 -45 3 -67 0 -75 -10 -7 -8 -36 -14
-76 -15 -36 -1 -77 -6 -91 -11 -14 -6 -43 -10 -64 -10 -21 0 -42 -5 -46 -11
-3 -6 -15 -8 -26 -6 -11 3 -48 -3 -81 -14 -34 -11 -84 -21 -110 -21 -31 -1
-51 -6 -54 -15 -4 -9 -25 -13 -68 -13 -40 0 -69 -5 -77 -13 -14 -14 -23 -17
-117 -38 -40 -9 -58 -9 -72 -1 -14 9 -20 9 -26 -2 -4 -7 -22 -21 -40 -30 -35
-17 -78 -22 -68 -7 3 5 1 12 -5 16 -5 3 -10 -3 -10 -13 0 -16 -5 -19 -22 -14
-14 3 -19 1 -14 -6 4 -6 -1 -11 -11 -11 -10 0 -29 -2 -43 -5 -14 -3 -42 -9
-63 -12 -20 -3 -40 -10 -43 -15 -3 -5 -20 -9 -39 -9 -19 0 -37 -5 -40 -11 -4
-5 -17 -9 -28 -7 -12 1 -28 -1 -34 -5 -7 -4 -27 -10 -45 -12 -80 -10 -164 -30
-179 -42 -8 -7 -39 -13 -67 -13 -28 0 -69 -7 -89 -15 -51 -19 -143 -42 -223
-54 -55 -9 -187 -41 -240 -59 -8 -2 -24 -5 -35 -7 -61 -5 -131 -18 -140 -25
-5 -5 -23 -11 -40 -14 -92 -17 -139 -30 -258 -67 -73 -22 -141 -44 -152 -49
-18 -8 -18 -9 5 -10 38 -1 6 -16 -65 -29 -90 -18 -294 -60 -340 -71 -143 -33
-237 -53 -280 -60 -27 -4 -102 -20 -165 -35 -63 -15 -135 -31 -160 -35 -158
-28 -270 -52 -328 -69 -62 -19 -201 -36 -188 -24 3 3 33 13 68 23 74 22 457
165 466 175 4 4 -2 5 -13 2 -28 -8 -213 -42 -390 -72 -215 -36 -355 -62 -392
-73 -17 -6 -60 -12 -95 -13 -62 -4 -63 -4 -61 21 3 25 3 25 -90 26 -50 1 -108
1 -127 1 -19 1 -45 1 -58 1 -13 0 -62 20 -110 43 -48 24 -91 43 -95 41 -11 -3
-118 47 -138 65 -33 29 -82 7 -166 -74 -43 -41 -90 -81 -105 -89 -16 -8 -28
-21 -28 -29 0 -8 -9 -15 -19 -15 -11 0 -28 -11 -39 -25 -11 -14 -23 -25 -27
-25 -4 0 -21 -6 -38 -14 -45 -20 -122 -43 -192 -56 -33 -7 -82 -21 -110 -31
-27 -10 -64 -19 -82 -19 -34 0 -117 -32 -127 -49 -9 -13 17 -14 104 -1 75 11
184 20 179 16 -21 -19 -334 -131 -434 -155 -71 -18 -147 -39 -169 -47 -21 -8
-73 -23 -115 -34 -42 -10 -128 -32 -191 -49 -277 -73 -398 -103 -440 -111 -25
-5 -65 -15 -90 -23 -25 -8 -69 -18 -98 -21 -29 -4 -78 -18 -109 -31 -30 -14
-64 -25 -75 -25 -44 0 -286 -55 -438 -99 -36 -11 -92 -24 -125 -31 -33 -6
-118 -22 -190 -36 -71 -15 -168 -32 -215 -39 -47 -7 -104 -22 -126 -33 -44
-22 -201 -48 -346 -56 -65 -3 -100 -11 -141 -30 -29 -14 -63 -26 -75 -26 -11
0 -44 -5 -74 -11 -29 -6 -63 -13 -75 -15 l-23 -4 1 -243 c1 -133 4 -232 6
-220 2 12 14 25 26 28 12 3 38 10 57 15 19 6 109 28 200 49 91 22 197 48 235
59 39 11 106 27 150 37 44 9 143 33 220 52 127 32 474 111 585 134 25 5 92 20
150 34 58 13 170 38 250 55 80 17 161 35 180 40 66 17 126 30 425 95 165 36
377 85 470 110 268 70 457 116 903 223 68 16 126 32 129 36 4 3 2 11 -4 17 -7
7 -23 7 -54 -1 -52 -14 -62 -16 -156 -35 -40 -8 -98 -23 -129 -34 -32 -10 -63
-17 -71 -14 -7 3 -13 1 -13 -4 0 -6 -26 -15 -57 -22 -32 -7 -85 -19 -118 -26
-145 -34 -235 -54 -300 -65 -38 -7 -78 -17 -88 -22 -10 -5 -37 -9 -60 -10 -23
0 -46 -4 -52 -8 -5 -5 -35 -9 -65 -11 -30 -1 -64 -9 -76 -16 -11 -7 -44 -15
-73 -18 -29 -3 -61 -9 -70 -14 -9 -5 -38 -12 -66 -16 -27 -4 -53 -12 -56 -17
-3 -4 -31 -13 -62 -18 -31 -5 -64 -13 -74 -18 -10 -6 -36 -11 -58 -13 -22 -1
-45 -7 -52 -12 -7 -5 -31 -11 -55 -14 -23 -2 -47 -8 -53 -12 -31 -25 -335 -63
-335 -42 0 4 30 15 68 23 37 9 85 22 107 28 73 21 240 59 263 60 12 0 22 4 22
9 0 4 27 12 61 15 34 4 89 16 123 26 33 11 71 20 83 20 12 0 25 4 28 10 3 5
24 10 45 10 22 0 49 4 62 9 39 16 167 53 201 57 17 3 46 10 62 15 37 13 283
73 427 104 59 13 129 30 154 39 26 9 58 16 71 16 24 0 159 30 248 56 28 7 85
20 127 28 98 19 128 48 157 155 11 40 21 74 23 75 2 1 28 19 58 39 38 25 66
37 90 37 56 0 140 -27 184 -58 73 -51 183 -92 249 -92 17 0 37 -10 51 -25 14
-15 34 -25 50 -25 14 0 122 22 239 49 116 27 229 52 249 56 41 6 51 15 42 39
-7 18 -39 22 -49 6 -10 -16 -76 -42 -115 -46 -19 -2 -50 -5 -68 -7 -17 -2 -35
-7 -39 -10 -3 -4 -16 -4 -28 -1 -12 3 -28 -1 -36 -8 -16 -15 -68 -18 -66 -4 2
13 35 31 70 40 15 3 27 10 27 14 0 5 14 7 30 4 17 -2 46 3 65 12 34 17 112 33
185 40 19 2 53 9 75 15 22 6 76 11 120 12 56 1 72 3 55 9 -23 7 -23 8 -3 9 12
1 29 8 38 18 13 12 19 13 24 4 6 -10 15 -10 42 1 19 8 45 13 59 12 14 -1 27 2
30 6 3 4 22 10 43 13 35 5 43 0 38 -26 -1 -5 3 -6 8 -3 5 4 8 15 6 26 -3 17 2
20 34 20 20 0 41 4 47 9 15 14 107 23 124 11 13 -9 13 -11 0 -20 -12 -8 -9 -9
12 -8 31 3 31 14 3 41 -17 15 -17 18 -3 13 10 -3 20 -1 24 5 3 6 12 8 20 5 8
-3 14 -2 14 3 0 7 39 16 240 55 41 8 98 20 125 26 28 6 76 8 108 6 55 -5 81 8
35 17 -13 2 -6 3 15 2 20 -2 35 0 32 5 -5 8 43 22 140 41 33 6 66 13 75 16 13
4 13 4 0 -6 -22 -15 -9 -19 40 -11 25 4 41 8 36 9 -11 1 25 30 38 31 5 0 3 -6
-3 -13 -6 -8 -8 -17 -4 -20 12 -12 21 -7 26 15 5 18 9 19 21 9 11 -9 20 -10
33 -2 14 8 15 11 3 11 -11 0 -10 4 4 12 15 8 21 8 24 -1 3 -9 11 -8 29 4 13 9
30 14 36 11 7 -2 4 -5 -6 -5 -10 -1 -15 -5 -12 -11 3 -6 -2 -10 -11 -10 -10 0
-15 -2 -12 -5 3 -3 41 3 84 14 141 35 191 44 203 37 6 -4 11 -1 11 8 0 10 -10
16 -27 17 l-28 1 30 7 c17 4 33 3 36 -1 9 -13 150 -2 198 16 24 9 56 16 72 16
15 0 39 4 53 10 14 5 47 12 73 15 27 3 64 10 83 15 52 15 194 46 290 65 91 18
396 85 495 110 33 8 110 26 170 40 260 61 980 240 1053 261 18 5 24 2 29 -15
3 -11 10 -21 15 -21 5 0 7 -4 4 -9 -4 -5 0 -22 8 -38 8 -15 20 -47 27 -70 7
-24 13 -43 14 -43 21 0 268 55 293 66 19 8 45 14 58 14 13 0 43 4 66 10 197
45 315 71 383 85 44 9 116 25 160 36 44 11 109 27 145 35 36 8 83 20 104 25
22 6 51 12 65 14 14 2 55 11 91 20 36 9 90 21 120 26 30 6 64 14 75 19 11 5
43 14 70 19 74 15 255 62 290 76 17 7 68 20 115 29 99 20 143 32 185 51 17 7
50 19 75 26 41 12 110 46 110 54 0 6 -71 -3 -150 -20 -41 -8 -89 -17 -106 -20
-17 -2 -52 -13 -77 -24 -25 -11 -62 -23 -82 -27 -19 -3 -35 -10 -35 -15 0 -4
-21 -11 -47 -14 -27 -4 -61 -11 -78 -17 -37 -13 -113 -28 -180 -35 -27 -2 -54
-9 -59 -14 -6 -5 -23 -9 -39 -9 -16 0 -44 -7 -63 -16 -19 -9 -37 -14 -41 -11
-3 4 -15 1 -27 -5 -19 -11 -111 -27 -159 -29 -12 0 -17 -5 -13 -15 3 -8 -1
-14 -9 -14 -8 0 -15 5 -15 11 0 8 -5 7 -15 -1 -9 -7 -29 -13 -45 -12 -17 0
-30 -4 -30 -10 0 -6 -11 -8 -25 -6 -14 3 -28 1 -31 -4 -3 -5 -12 -7 -19 -4 -7
2 -24 -2 -38 -9 -14 -7 -28 -11 -31 -8 -3 3 -13 0 -21 -7 -9 -7 -36 -12 -62
-11 -26 1 -49 -3 -52 -7 -7 -11 -176 -49 -251 -58 -30 -3 -66 -9 -80 -14 -69
-22 -113 -30 -195 -34 -51 -3 -81 -1 -70 3 33 14 146 39 205 47 30 4 60 11 67
16 6 5 38 12 70 15 32 3 63 9 68 13 6 5 53 16 105 25 52 9 111 23 131 32 20 8
47 13 60 12 13 -2 29 0 36 4 6 4 31 12 55 17 127 28 216 50 242 59 16 7 31 9
34 7 2 -3 17 1 33 9 15 8 38 15 50 15 13 0 36 4 53 9 57 18 180 49 281 71 55
12 120 28 144 36 25 8 58 14 73 14 16 0 38 5 48 10 10 6 47 16 82 24 119 27
183 47 253 80 39 19 85 37 103 41 18 4 45 13 60 21 15 8 37 14 50 14 12 0 30
5 40 10 9 6 53 19 97 29 229 54 345 91 345 109 0 5 15 9 33 9 32 0 234 47 272
63 11 5 39 12 63 15 23 4 42 11 42 16 0 5 9 9 19 9 11 0 21 3 23 8 4 10 128
44 158 43 70 -3 94 -1 103 8 6 6 20 11 32 11 12 0 26 5 32 11 12 12 16 8 33
-44 8 -25 17 -37 27 -35 21 4 31 24 38 81 4 26 10 45 16 42 5 -4 9 0 9 8 0 23
92 77 131 77 54 1 109 17 129 37 21 24 39 31 210 83 74 23 153 48 175 55 22 7
108 34 190 60 83 26 188 59 235 75 47 16 186 61 310 100 124 39 234 75 245 80
11 4 47 16 80 25 33 9 107 32 165 51 58 18 117 36 133 40 l27 6 0 1349 0 1348
-43 19 c-24 11 -68 25 -98 32 -63 15 -159 48 -174 60 -26 21 -187 51 -248 46
-65 -5 -140 12 -330 75 -112 37 -130 47 -192 103 -55 51 -148 107 -210 126
-22 7 -44 16 -50 20 -5 5 -91 35 -190 67 l-180 58 -7142 3 -7143 2 0 -964z
m14757 422 c-3 -8 -6 -5 -6 6 -1 11 2 17 5 13 3 -3 4 -12 1 -19z m-3199 -39
c28 -6 52 -14 52 -18 0 -5 20 -21 45 -37 25 -15 45 -32 45 -36 0 -4 8 -17 18
-28 23 -28 29 -64 20 -137 -7 -57 -25 -103 -52 -128 -29 -27 -116 -170 -116
-190 0 -7 -7 -15 -15 -18 -8 -4 -23 -23 -35 -44 -24 -44 -40 -70 -58 -92 -81
-99 -84 -101 -149 -84 -35 9 -64 42 -81 90 -6 18 -22 48 -36 66 -15 19 -26 37
-26 41 0 14 -75 105 -90 111 -40 13 -146 14 -212 1 -40 -8 -91 -17 -113 -21
-22 -3 -60 -12 -85 -20 -25 -7 -67 -16 -95 -19 -27 -3 -81 -13 -120 -21 -38
-9 -97 -20 -130 -25 -33 -5 -71 -13 -85 -16 -14 -4 -55 -11 -92 -17 -38 -6
-68 -14 -68 -19 0 -4 -13 -8 -29 -8 -34 0 -126 -18 -156 -30 -11 -5 -65 -16
-120 -25 -88 -14 -187 -35 -321 -67 -55 -13 -83 -51 -100 -136 -1 -8 3 -11 12
-8 12 4 34 -20 34 -38 0 -14 -29 -4 -33 12 -3 10 -5 4 -6 -13 l-2 -30 -23 27
c-13 14 -39 34 -57 43 -19 10 -44 26 -55 37 -17 15 -33 18 -75 16 l-54 -3 -24
-50 c-62 -133 -229 -401 -448 -724 -43 -63 -89 -135 -103 -160 -13 -25 -28
-47 -32 -49 -4 -2 -8 -10 -8 -18 0 -8 -5 -14 -11 -14 -5 0 -8 3 -6 8 3 4 50
99 105 212 113 229 152 303 269 505 77 135 118 209 175 321 27 52 47 67 98 68
37 1 79 91 78 167 -1 67 27 136 67 164 15 11 33 25 40 32 30 28 182 65 360 88
28 3 120 19 205 35 85 15 232 38 325 50 171 22 325 45 400 60 22 4 85 17 140
28 55 11 125 23 155 27 76 10 221 48 375 100 175 59 178 59 303 34z m767 -503
c143 -37 285 -74 315 -81 53 -13 102 -28 145 -46 11 -5 86 -5 166 -1 178 9
218 0 280 -61 79 -76 109 -124 115 -182 4 -48 4 -197 -2 -230 -11 -73 -10
-124 4 -130 23 -9 178 -6 229 5 26 5 158 14 293 20 377 16 365 16 383 -2 9 -9
20 -18 25 -20 24 -10 61 -79 71 -131 12 -67 8 -81 -32 -124 -17 -18 -28 -36
-24 -39 4 -4 2 -13 -4 -20 -5 -7 -12 -63 -15 -125 l-4 -113 -32 -20 c-18 -11
-37 -26 -41 -33 -4 -7 -13 -13 -18 -13 -6 0 -8 4 -5 9 3 5 -1 14 -9 21 -12 10
-16 9 -21 -4 -5 -13 -9 -14 -21 -4 -13 10 -14 7 -11 -21 3 -31 0 -34 -47 -52
-27 -10 -59 -19 -71 -19 -32 0 -43 -17 -30 -46 9 -20 16 -23 41 -18 17 3 49
14 72 25 24 10 50 19 58 19 8 0 32 9 52 20 21 11 43 20 50 20 7 0 13 7 13 16
0 23 41 53 72 54 14 0 28 4 30 9 6 17 110 81 120 75 10 -6 6 -80 -6 -142 -10
-47 -97 -128 -147 -137 -13 -3 -46 -11 -73 -19 -27 -8 -53 -13 -58 -10 -4 3
-20 -2 -35 -10 -16 -8 -55 -19 -88 -25 -33 -6 -61 -16 -63 -21 -2 -6 -13 -10
-25 -10 -27 0 -107 -29 -128 -47 -8 -7 -23 -13 -33 -13 -9 0 -25 -4 -34 -9
-31 -16 -130 -20 -142 -6 -21 25 7 62 87 114 43 28 72 51 66 51 -7 0 -13 7
-13 15 0 8 -6 12 -14 9 -14 -5 -41 51 -31 65 8 14 -18 81 -32 81 -7 0 -13 8
-13 19 0 27 -123 147 -157 154 -43 9 -198 -20 -293 -54 -47 -17 -118 -39 -159
-51 l-74 -20 -66 26 c-37 14 -73 26 -82 26 -8 0 -45 24 -81 54 l-66 55 -68
-18 c-38 -10 -134 -35 -214 -55 -80 -21 -163 -43 -185 -51 -52 -17 -187 -57
-295 -86 -47 -12 -105 -31 -129 -42 -30 -13 -67 -19 -115 -19 -39 0 -78 -4
-87 -9 -9 -4 -63 -15 -120 -25 -57 -9 -111 -22 -120 -30 -8 -8 -21 -14 -27
-14 -7 0 -12 -10 -12 -23 0 -18 -9 -26 -37 -36 -21 -8 -46 -20 -55 -29 -16
-14 -18 -14 -18 1 0 9 5 19 10 22 6 3 10 15 10 25 0 11 16 27 40 41 37 21 39
24 24 40 -9 10 -30 21 -48 25 -17 3 -50 15 -73 25 -23 11 -46 19 -52 19 -6 0
-25 6 -43 14 -18 8 -49 21 -68 30 -35 14 -100 84 -100 106 0 5 -4 18 -9 28
-13 24 -32 114 -33 153 -1 19 -7 40 -15 47 -7 7 -13 28 -13 45 0 18 -7 50 -14
72 -8 22 -20 67 -27 101 l-12 60 34 52 c18 29 39 52 46 52 7 0 13 3 13 8 0 12
73 42 130 52 107 20 195 43 211 57 8 7 19 13 24 13 5 0 18 8 29 18 47 42 120
62 223 62 86 0 105 3 155 27 31 16 61 37 66 48 34 74 50 137 62 237 7 60 15
85 36 113 66 86 127 85 489 -9z m-12040 -86 c4 -6 10 -8 14 -5 5 2 19 -4 31
-15 13 -11 40 -25 60 -30 21 -6 49 -19 64 -31 14 -11 26 -18 26 -15 0 3 15 -3
33 -13 18 -10 49 -22 68 -26 19 -4 41 -13 49 -20 8 -8 20 -14 25 -16 24 -4 32
-7 65 -18 19 -7 45 -15 58 -18 12 -3 22 -11 22 -18 0 -7 9 -15 20 -18 14 -4
20 -14 20 -35 0 -61 -53 -79 -98 -34 -13 13 -30 21 -37 18 -7 -2 -16 2 -19 10
-3 8 -19 14 -39 14 -19 0 -40 7 -47 15 -7 8 -19 15 -26 15 -8 0 -14 -7 -14
-15 0 -8 -4 -15 -10 -15 -5 0 -10 6 -10 13 0 7 -15 21 -32 32 -37 22 -37 22
-78 24 -18 0 -29 6 -27 13 1 7 -14 15 -38 18 -83 13 -112 57 -106 163 1 19 16
23 26 7z m8414 -179 c11 -11 30 -41 42 -66 12 -25 25 -45 30 -45 5 0 9 -7 9
-15 0 -8 6 -15 13 -16 10 0 10 -2 0 -6 -7 -2 -13 -13 -13 -24 0 -10 -3 -19 -7
-19 -14 1 -87 70 -75 70 19 0 14 32 -10 57 -26 28 -64 30 -78 3 -8 -15 -21
-20 -55 -20 -48 0 -75 -24 -75 -66 0 -20 -144 -317 -189 -389 -10 -16 -17 -33
-15 -37 3 -4 -7 -19 -21 -35 -13 -15 -25 -22 -25 -15 0 25 -28 11 -54 -29 -27
-40 -29 -41 -71 -35 l-43 7 -36 -74 c-20 -40 -36 -87 -36 -103 0 -37 -24 -72
-52 -76 -28 -4 -92 -112 -239 -402 -38 -76 -79 -150 -90 -165 l-21 -26 7 35
c3 19 22 68 41 107 19 40 34 77 34 83 0 5 4 10 9 10 5 0 14 15 20 33 7 17 24
53 37 79 14 26 45 86 69 134 23 47 53 97 66 110 25 27 32 51 18 60 -23 14 -6
66 51 153 33 50 60 95 60 99 0 4 18 27 40 52 118 131 150 155 150 110 0 -13 7
-20 19 -20 19 0 22 5 161 295 37 77 77 148 88 158 11 10 40 21 64 24 24 3 52
12 63 20 27 19 87 11 114 -16z m7007 -206 c18 -14 36 -25 40 -25 26 0 72 -83
80 -142 3 -18 9 -58 14 -88 15 -84 23 -215 16 -244 -8 -31 -22 -34 -31 -7 -7
24 -64 39 -75 21 -4 -7 -12 -10 -18 -6 -6 3 -15 -1 -20 -11 -7 -11 -25 -18
-51 -20 -39 -2 -41 -1 -30 18 6 11 18 29 26 39 9 10 17 34 19 53 2 20 10 47
19 60 40 61 -2 248 -60 271 -8 3 -12 12 -9 21 4 10 0 15 -12 16 -18 0 -17 1 1
9 18 8 18 9 2 9 -10 1 -15 6 -12 11 4 6 10 8 15 5 5 -3 14 4 20 15 14 26 26
25 66 -5z m-6251 -17 c21 -9 31 -9 46 0 10 7 32 12 48 12 43 0 134 -22 146
-36 6 -6 32 -14 59 -18 27 -3 54 -10 60 -15 6 -4 22 -11 36 -14 21 -4 167 -54
220 -74 8 -4 19 -5 24 -4 5 1 16 -4 25 -12 9 -8 43 -24 76 -37 33 -12 116 -46
185 -75 69 -29 153 -61 188 -70 62 -18 120 -64 106 -86 -3 -5 4 -26 15 -45 33
-55 30 -58 -62 -51 -65 5 -117 1 -233 -18 -347 -56 -510 -63 -631 -27 -92 27
-113 38 -113 61 0 11 -7 21 -15 25 -8 3 -15 10 -15 16 0 17 -103 110 -122 110
-9 0 -20 5 -23 10 -3 6 -27 19 -53 31 -86 37 -93 42 -80 51 10 6 9 8 -3 8 -15
0 -16 5 -6 43 5 23 18 53 29 66 10 13 18 29 18 36 0 7 9 24 20 38 16 20 18 31
11 50 -15 38 -1 46 44 25z m5335 -239 c11 -8 12 -12 3 -15 -8 -4 -9 -13 -3
-29 6 -15 6 -27 0 -30 -6 -4 -10 -15 -10 -25 0 -11 -7 -35 -16 -54 -13 -26
-24 -35 -48 -39 -17 -2 -36 -3 -42 0 -15 6 -10 62 10 103 34 70 41 79 61 89
26 13 27 13 45 0z m-6103 -111 c-3 -7 -5 -2 -5 12 0 14 2 19 5 13 2 -7 2 -19
0 -25z m650 -57 c109 -56 168 -79 193 -76 14 1 38 -4 53 -12 16 -8 35 -12 43
-9 12 4 12 2 4 -15 -7 -13 -8 -25 -2 -32 5 -7 12 -29 15 -49 l6 -37 -65 0
c-36 1 -70 -4 -77 -9 -7 -6 -64 -13 -127 -16 -63 -3 -133 -7 -155 -8 -37 -3
-40 -1 -43 24 -5 38 45 250 60 259 21 14 34 11 95 -20z m5253 -221 c0 -5 -4
-10 -10 -10 -5 0 -10 5 -10 10 0 6 5 10 10 10 6 0 10 -4 10 -10z m-9887 -115
c9 -8 17 -20 19 -27 2 -6 20 -11 40 -10 32 1 39 -3 53 -31 9 -19 18 -69 21
-124 5 -88 4 -92 -21 -115 -19 -18 -28 -42 -39 -103 -14 -76 -17 -91 -32 -132
-4 -10 -7 -28 -8 -40 -3 -36 -22 -50 -43 -31 -14 11 -32 13 -73 9 -54 -6 -55
-7 -67 -46 -6 -22 -17 -71 -23 -110 -11 -65 -24 -124 -64 -294 -9 -36 -21 -68
-27 -71 -6 -4 -10 -10 -10 -14 1 -3 1 -19 1 -36 0 -26 -4 -30 -26 -30 -25 0
-26 2 -19 37 3 20 8 98 10 172 2 106 9 161 30 246 15 61 31 128 36 150 11 58
35 154 48 195 6 19 15 69 20 110 14 106 65 260 97 288 29 26 56 28 77 7z
m3048 -12 c-8 -15 -10 -15 -11 -2 0 17 10 32 18 25 2 -3 -1 -13 -7 -23z m-27
-40 c-1 -34 -7 -52 -22 -64 -12 -9 -19 -19 -15 -22 3 -4 2 -14 -2 -24 -4 -10
-8 -31 -9 -48 -1 -28 -4 -30 -48 -36 -26 -4 -51 -10 -55 -12 -5 -3 -15 -2 -22
3 -16 9 -2 64 17 66 7 1 16 2 21 3 5 0 7 18 5 39 -2 20 0 30 4 22 9 -18 38
-25 47 -10 3 5 1 10 -5 10 -16 0 -28 42 -18 65 11 24 54 46 74 38 8 -3 14 0
14 6 0 6 3 11 8 11 4 0 7 -21 6 -47z m6466 -82 c0 -6 -4 -13 -10 -16 -5 -3
-10 1 -10 9 0 9 5 16 10 16 6 0 10 -4 10 -9z m-7285 -91 c4 -6 10 -8 15 -5 5
3 11 1 15 -5 3 -5 14 -10 24 -10 10 0 32 -7 48 -15 17 -9 52 -17 78 -19 25 -2
49 -7 52 -10 4 -3 13 -6 22 -6 9 0 22 -4 30 -9 12 -8 12 -12 2 -25 -7 -9 -18
-13 -23 -10 -5 3 -12 -3 -14 -13 -3 -11 -19 -27 -35 -37 -18 -11 -38 -37 -51
-67 -27 -61 -57 -73 -94 -38 -13 12 -24 27 -24 33 0 7 -17 20 -37 31 -21 11
-48 29 -60 41 -22 20 -22 22 -8 78 23 87 42 115 60 86z m4648 -121 c48 -21 95
-39 105 -39 10 0 26 -6 37 -13 11 -7 48 -22 83 -33 34 -10 62 -22 62 -26 0 -5
6 -8 13 -8 7 0 30 -9 51 -19 21 -11 52 -23 69 -26 l32 -6 -28 25 c-32 30 -20
33 43 14 42 -14 54 -38 19 -38 -19 0 -21 -4 -16 -34 4 -24 1 -39 -9 -47 -8 -6
-14 -18 -14 -26 0 -7 -6 -21 -12 -29 -24 -30 -81 -84 -88 -84 -22 0 -58 65
-64 116 -8 71 -21 94 -51 94 -13 0 -26 4 -30 10 -3 5 -15 6 -28 1 -32 -12 -63
3 -78 38 -18 41 -40 48 -137 47 -82 -1 -84 -1 -98 26 -17 34 -18 95 -1 101 17
7 41 0 140 -44z m-6526 -25 c2 -5 -13 -18 -32 -27 -24 -11 -41 -29 -51 -53
-18 -43 -29 -35 -37 22 -7 62 5 76 65 72 29 -2 53 -8 55 -14z m209 -56 c1 -10
-2 -21 -7 -24 -13 -8 -39 15 -39 33 0 21 43 12 46 -9z m2222 -13 c1 -12 -12
-36 -33 -58 -29 -32 -40 -38 -61 -33 -15 4 -32 2 -40 -5 -11 -9 -18 -6 -34 12
-50 60 3 111 110 106 47 -2 55 -5 58 -22z m4785 19 c9 -10 -4 -34 -19 -34 -8
0 -14 9 -14 20 0 19 19 27 33 14z m-5618 -119 c28 -27 31 -51 13 -90 -12 -26
-47 -41 -72 -32 -16 6 -30 85 -20 113 16 41 45 44 79 9z m336 -56 c39 -27 37
-56 -6 -123 -19 -30 -35 -60 -35 -66 0 -6 17 -18 38 -27 58 -24 70 -61 28 -88
-22 -15 -28 -15 -61 -1 -21 9 -42 16 -46 16 -11 0 -99 -178 -99 -201 0 -23
-47 -71 -67 -67 -17 3 -22 15 -42 105 -12 50 -12 52 32 145 24 52 49 110 56
129 6 19 28 55 49 81 20 25 44 59 54 76 9 17 27 32 40 35 12 2 25 5 26 6 2 0
17 -8 33 -20z m6085 -59 c0 -11 -4 -20 -8 -20 -4 0 -8 9 -8 20 0 11 4 20 8 20
4 0 8 -9 8 -20z m-5548 4 c32 -9 28 -41 -11 -78 -32 -30 -47 -54 -53 -87 -2
-9 -23 -36 -46 -60 -70 -73 -98 -107 -98 -117 0 -5 -9 -12 -20 -15 -13 -3 -18
-10 -14 -21 4 -11 1 -16 -10 -16 -20 0 -20 5 1 37 33 49 73 181 73 237 0 42
28 78 82 105 45 22 59 24 96 15z m5534 -59 c-4 -25 -13 -31 -25 -18 -6 5 19
43 28 43 1 0 0 -11 -3 -25z m82 -65 c4 0 31 -18 60 -40 29 -22 58 -40 64 -40
6 0 17 -6 24 -12 7 -7 26 -19 41 -27 15 -8 47 -32 70 -53 23 -21 45 -38 50
-39 58 -11 138 -46 193 -85 34 -24 73 -44 87 -44 21 0 25 -5 29 -35 4 -35 -4
-45 -19 -22 -4 6 -17 13 -28 14 -98 10 -233 52 -243 75 -2 4 -9 8 -15 8 -34 0
-212 81 -228 104 -4 4 -15 5 -26 2 -27 -9 -93 20 -93 40 0 13 7 15 30 11 17
-4 30 -5 30 -2 0 2 -18 23 -40 45 -32 33 -40 48 -40 79 0 46 8 56 30 36 9 -8
20 -15 24 -15z m-4064 -5 c23 -8 76 -35 117 -60 40 -25 77 -45 82 -45 5 0 14
-6 20 -14 7 -8 36 -27 64 -42 29 -14 75 -41 102 -59 83 -53 117 -70 197 -99
43 -16 83 -35 89 -42 6 -8 18 -14 25 -14 8 0 22 -8 33 -19 18 -18 84 -51 173
-87 27 -10 48 -22 48 -26 0 -5 7 -8 15 -8 18 0 139 -66 155 -85 14 -17 5 -35
-18 -35 -23 0 -176 61 -277 110 -44 21 -118 55 -164 75 -118 50 -413 206 -521
276 -62 40 -112 64 -151 73 -28 6 -45 -9 -79 -71 -11 -21 -34 -58 -50 -83 -26
-40 -67 -107 -103 -165 -7 -11 -24 -36 -39 -56 -16 -20 -28 -41 -28 -47 0 -5
-7 -16 -16 -23 -9 -7 -20 -22 -25 -34 -15 -32 -35 -63 -51 -82 -8 -10 -26 -37
-38 -60 -13 -24 -30 -43 -37 -43 -9 0 -11 -5 -7 -12 4 -7 3 -10 -1 -5 -12 10
-14 47 -3 47 4 0 8 7 8 14 0 8 29 73 65 145 36 71 65 132 65 137 0 4 6 15 14
23 8 9 32 50 54 91 22 41 48 91 59 110 11 19 39 71 63 115 67 125 75 130 160
100z m-2702 -33 c2 -7 -9 -17 -26 -23 -17 -6 -32 -19 -35 -29 -3 -11 -20 -28
-38 -39 -19 -11 -45 -36 -58 -56 -13 -19 -27 -35 -31 -35 -15 0 -22 72 -10
101 16 38 51 59 105 61 34 2 46 7 51 21 6 20 35 20 42 -1z m-1569 -119 c-18
-66 -29 -61 -29 13 0 50 4 72 18 87 17 19 17 18 20 -19 2 -21 -2 -58 -9 -81z
m3471 38 c0 -5 6 -9 13 -8 58 2 79 -16 30 -26 -17 -3 -34 0 -44 9 -8 8 -23 14
-32 14 -9 0 -17 5 -17 10 0 6 11 10 25 10 14 0 25 -4 25 -9z m-12 -35 c3 -3
-20 -6 -52 -6 -38 0 -55 4 -51 11 7 10 91 6 103 -5z m-296 -40 c40 -19 82 -37
92 -40 30 -10 12 -18 -70 -31 -68 -11 -79 -10 -93 4 -31 33 -42 49 -51 81 -9
32 -9 32 20 26 17 -3 63 -21 102 -40z m515 -13 c-7 -6 -46 10 -41 18 3 5 14 3
24 -3 11 -7 18 -13 17 -15z m2663 -1 c0 -13 -12 -22 -22 -16 -10 6 -1 24 13
24 5 0 9 -4 9 -8z m-2656 -33 c-3 -5 -10 -7 -15 -3 -5 3 -7 10 -3 15 3 5 10 7
15 3 5 -3 7 -10 3 -15z m2588 -37 c-7 -2 -12 -10 -12 -18 0 -9 -4 -12 -10 -9
-6 4 -5 13 2 25 7 10 17 16 22 13 6 -4 5 -8 -2 -11z m-3812 -6 c0 -3 -4 -8
-10 -11 -5 -3 -10 -1 -10 4 0 6 5 11 10 11 6 0 10 -2 10 -4z m6662 -126 c20 0
41 -7 48 -15 7 -8 25 -14 42 -12 37 3 59 -24 42 -50 -8 -13 -21 -17 -45 -15
-19 2 -49 4 -67 5 -18 1 -48 15 -67 30 -18 15 -43 27 -54 27 -12 0 -22 5 -22
10 -1 6 -2 16 -3 23 -1 6 5 19 13 28 15 15 19 14 47 -8 19 -14 45 -23 66 -23z
m1010 35 c-2 -5 -11 -10 -22 -9 -10 0 -17 -3 -14 -7 5 -9 -28 -29 -50 -29 -18
0 -13 39 6 52 18 11 84 5 80 -7z m-8951 -15 c-24 -21 -41 -26 -41 -12 0 15 24
32 45 32 19 -1 19 -1 -4 -20z m8823 -6 c13 -5 13 -8 -2 -23 -30 -30 -186 -99
-287 -127 -27 -8 -66 -22 -85 -31 -19 -9 -55 -20 -80 -25 -25 -5 -46 -13 -48
-18 -2 -6 -12 -10 -23 -10 -11 0 -19 -7 -19 -17 0 -11 -3 -14 -8 -7 -4 6 -15
14 -26 17 -16 7 -17 9 -4 29 8 12 24 23 37 25 12 2 44 21 69 42 31 26 62 41
89 46 24 4 45 10 48 14 2 5 26 14 52 21 27 7 67 21 90 31 24 10 55 19 70 20
16 1 39 5 53 9 32 10 54 12 74 4z m-10397 -126 c-3 -7 -5 -2 -5 12 0 14 2 19
5 13 2 -7 2 -19 0 -25z m1688 -124 l27 -25 -23 -25 c-39 -41 -54 -33 -65 34
-6 37 -4 42 13 42 11 0 33 -12 48 -26z m4366 6 c11 0 0 -60 -14 -78 -7 -8 -21
-12 -36 -8 -14 3 -41 8 -59 12 -23 4 -34 13 -38 31 -4 13 -4 26 -1 29 8 8 109
22 125 18 8 -2 18 -4 23 -4z m-2962 -35 c0 -5 -6 -9 -12 -8 -15 3 -72 -118
-94 -199 -9 -35 -20 -67 -24 -72 -18 -21 42 177 70 228 20 37 25 58 18 65 -7
7 -2 8 16 3 15 -4 26 -11 26 -17z m-227 -61 c-12 -8 -22 -22 -22 -30 0 -8 -4
-14 -10 -14 -13 0 -13 16 0 41 6 10 21 19 33 19 l21 0 -22 -16z m-1862 -4 c0
-5 -5 -10 -11 -10 -5 0 -7 5 -4 10 3 6 8 10 11 10 2 0 4 -4 4 -10z m-1553 -46
c-9 -9 -28 6 -21 18 4 6 10 6 17 -1 6 -6 8 -13 4 -17z m3353 -55 c-7 -12 -10
-37 -7 -55 5 -29 3 -34 -15 -34 -16 0 -19 4 -13 23 3 12 9 33 12 47 6 27 23
53 30 46 3 -2 -1 -14 -7 -27z m-30 -109 c0 -5 5 -9 11 -7 6 1 14 -4 16 -11 4
-10 -1 -10 -21 -1 -26 12 -35 29 -16 29 6 0 10 -4 10 -10z m-3585 -220 c21
-80 45 -173 53 -207 8 -35 18 -63 22 -63 5 0 6 -8 3 -18 -2 -10 3 -46 11 -79
18 -70 19 -73 8 -73 -9 0 -10 5 -87 290 -31 112 -59 207 -64 210 -4 3 -11 23
-15 45 -5 29 -4 36 3 25 9 -12 11 -10 11 10 0 48 18 3 55 -140z m3602 98 c-3
-8 -6 -5 -6 6 -1 11 2 17 5 13 3 -3 4 -12 1 -19z m210 16 c-3 -3 -12 -4 -19
-1 -8 3 -5 6 6 6 11 1 17 -2 13 -5z m-93 -66 c-4 -13 -10 -25 -14 -28 -12 -8
-80 -155 -80 -173 0 -10 -4 -17 -10 -17 -5 0 -10 5 -10 10 0 18 104 230 113
230 5 0 5 -10 1 -22z m93 -110 c-3 -8 -6 -5 -6 6 -1 11 2 17 5 13 3 -3 4 -12
1 -19z m-321 -132 c-9 -14 -16 -32 -16 -39 0 -8 -6 -20 -14 -26 -12 -10 -12
-5 0 35 8 27 20 51 26 55 20 13 22 1 4 -25z m294 -55 c0 -12 -20 -25 -27 -18
-7 7 6 27 18 27 5 0 9 -4 9 -9z m403 -103 c-27 -10 -45 -9 -38 2 4 6 11 7 17
4 7 -4 8 -2 4 4 -13 22 6 37 21 16 12 -16 11 -19 -4 -26z m-3015 7 c-3 -3 -9
2 -12 12 -6 14 -5 15 5 6 7 -7 10 -15 7 -18z m-1540 -170 c-3 -3 -9 2 -12 12
-6 14 -5 15 5 6 7 -7 10 -15 7 -18z m4043 -2 c-12 -20 -14 -14 -5 12 4 9 9 14
11 11 3 -2 0 -13 -6 -23z m94 -47 c-28 -47 -39 -59 -28 -28 12 30 45 83 50 78
3 -2 -7 -25 -22 -50z m3119 -15 c-1 -23 -3 -43 -5 -45 -2 -2 -26 -7 -53 -10
-33 -5 -46 -4 -41 3 8 13 -11 14 -95 1 -153 -24 -226 -31 -250 -25 l-25 7 25
13 c14 8 37 14 52 15 15 0 29 4 32 9 3 5 20 11 38 14 18 3 94 19 168 35 74 16
139 28 145 27 5 -1 9 -20 9 -44z m-7451 -42 c29 -23 53 -45 55 -50 2 -4 -24 4
-57 18 -50 21 -61 31 -61 50 0 12 2 23 5 23 3 0 29 -18 58 -41z m277 -89 c0
-5 -5 -10 -11 -10 -5 0 -7 5 -4 10 3 6 8 10 11 10 2 0 4 -4 4 -10z m5135 -230
c-3 -5 -12 -10 -18 -10 -7 0 -6 4 3 10 19 12 23 12 15 0z m-38 -6 c-3 -3 -12
-4 -19 -1 -8 3 -5 6 6 6 11 1 17 -2 13 -5z m-32 -14 c3 -5 -3 -10 -14 -10 -12
0 -21 5 -21 10 0 6 6 10 14 10 8 0 18 -4 21 -10z m-45 -10 c0 -5 -5 -10 -11
-10 -5 0 -7 5 -4 10 3 6 8 10 11 10 2 0 4 -4 4 -10z m-117 -17 c-7 -2 -19 -2
-25 0 -7 3 -2 5 12 5 14 0 19 -2 13 -5z m-83 -23 c0 -5 -4 -10 -9 -10 -6 0
-13 5 -16 10 -3 6 1 10 9 10 9 0 16 -4 16 -10z m-63 -6 c-3 -3 -12 -4 -19 -1
-8 3 -5 6 6 6 11 1 17 -2 13 -5z m-77 -24 c0 -5 -9 -10 -21 -10 -11 0 -17 5
-14 10 3 6 13 10 21 10 8 0 14 -4 14 -10z m-57 -7 c-7 -2 -19 -2 -25 0 -7 3
-2 5 12 5 14 0 19 -2 13 -5z m-93 -23 c-34 -11 -60 -11 -35 0 11 5 29 8 40 8
16 0 15 -2 -5 -8z m-173 -36 c-3 -3 -12 -4 -19 -1 -8 3 -5 6 6 6 11 1 17 -2
13 -5z m-82 -15 c-16 -6 -37 -12 -45 -14 -8 -2 -15 -4 -15 -5 0 -2 -26 -7 -97
-19 -31 -5 -61 -12 -66 -15 -5 -3 -33 -9 -63 -14 -30 -5 -99 -19 -154 -31 -55
-12 -193 -42 -308 -67 -114 -25 -213 -44 -220 -41 -6 2 24 11 68 21 226 48
273 58 305 66 42 11 278 61 450 96 69 14 127 27 129 30 2 2 14 4 25 3 16 -1
14 -3 -9 -10z m-665 -35 c-25 -8 -56 -13 -70 -11 -17 2 -7 6 30 14 77 15 93
14 40 -3z m-2358 -66 c37 -35 34 -63 -7 -63 -33 0 -48 22 -60 90 l-7 40 22
-20 c13 -11 36 -32 52 -47z m2696 -45 c-10 -2 -26 -2 -35 0 -10 3 -2 5 17 5
19 0 27 -2 18 -5z m-678 -73 c-14 -4 -36 -8 -50 -8 -23 -1 -23 0 -5 8 11 5 34
8 50 8 29 0 29 0 5 -8z m-100 -20 c-14 -4 -34 -8 -45 -8 -16 0 -15 2 5 8 14 4
34 8 45 8 16 0 15 -2 -5 -8z m-2210 -42 c0 -13 -23 -5 -28 10 -2 7 2 10 12 6
9 -3 16 -11 16 -16z m2097 16 c-3 -3 -12 -4 -19 -1 -8 3 -5 6 6 6 11 1 17 -2
13 -5z m-50 -10 c-3 -3 -12 -4 -19 -1 -8 3 -5 6 6 6 11 1 17 -2 13 -5z m-1118
-120 c-18 -7 -52 -13 -74 -13 -37 0 -38 1 -15 11 32 14 102 26 114 19 6 -2 -6
-10 -25 -17z m738 -20 c-3 -3 -12 -4 -19 -1 -8 3 -5 6 6 6 11 1 17 -2 13 -5z
m-1107 -54 c0 -5 -8 -10 -19 -10 -10 0 -34 -3 -52 -6 -24 -5 -31 -3 -24 4 9 9
29 14 83 21 6 0 12 -3 12 -9z m-3966 -86 c26 -10 18 -24 -13 -24 -37 0 -62 10
-55 21 6 10 45 12 68 3z m3169 -91 c-7 -2 -19 -2 -25 0 -7 3 -2 5 12 5 14 0
19 -2 13 -5z m897 -11 c-8 -3 -17 -8 -20 -12 -8 -12 -50 -22 -50 -13 0 18 22
30 53 30 18 1 25 -2 17 -5z m-1003 -8 c-3 -3 -12 -4 -19 -1 -8 3 -5 6 6 6 11
1 17 -2 13 -5z m903 -13 c0 -5 -9 -7 -20 -4 -11 3 -20 7 -20 9 0 2 9 4 20 4
11 0 20 -4 20 -9z m-4045 -111 c-3 -5 -19 -10 -36 -10 -16 0 -29 5 -29 10 0 6
16 10 36 10 21 0 33 -4 29 -10z"/>
<path d="M9331 9405 c-51 -99 -72 -148 -65 -155 14 -14 58 21 73 58 7 16 25
38 40 50 17 12 40 48 57 87 l28 68 -23 18 c-13 11 -26 19 -30 19 -3 0 -39 -66
-80 -145z"/>
<path d="M13917 8136 c-8 -21 20 -43 35 -28 9 9 8 12 -6 12 -9 0 -15 4 -11 9
3 5 1 12 -4 15 -5 3 -11 -1 -14 -8z"/>
<path d="M13850 8100 c0 -5 5 -10 10 -10 6 0 10 5 10 10 0 6 -4 10 -10 10 -5
0 -10 -4 -10 -10z"/>
<path d="M4723 8223 c-21 -7 -15 -33 7 -33 11 0 20 6 20 14 0 18 -11 25 -27
19z"/>
<path d="M10388 5813 c6 -2 18 -2 25 0 6 3 1 5 -13 5 -14 0 -19 -2 -12 -5z"/>
<path d="M15553 10683 c7 -6 45 -21 187 -73 93 -34 156 -58 197 -76 60 -27 63
-23 63 71 l0 85 -227 0 c-124 0 -223 -3 -220 -7z"/>
<path d="M2415 8820 c4 -6 11 -8 16 -5 14 9 11 15 -7 15 -8 0 -12 -5 -9 -10z"/>
<path d="M2383 8794 c-8 -22 7 -35 30 -28 12 4 32 7 45 6 39 -3 23 14 -24 25
-36 8 -47 8 -51 -3z"/>
<path d="M628 8447 c-27 -27 -37 -48 -51 -117 -10 -47 -25 -107 -34 -135 -21
-68 -12 -182 37 -480 51 -315 48 -427 -13 -463 -29 -18 -55 -19 -290 -20 -142
-1 -263 -4 -268 -7 -5 -4 -9 -44 -9 -91 l0 -85 30 16 c20 10 68 18 133 21 56
2 131 9 166 15 76 12 98 1 65 -31 -14 -14 -43 -24 -90 -31 -38 -5 -79 -15 -91
-21 -11 -6 -26 -7 -32 -4 -6 4 -21 0 -33 -8 -14 -8 -41 -13 -67 -11 -89 5 -81
46 -81 -426 l0 -419 28 6 c15 3 36 8 47 11 74 21 213 32 217 18 2 -5 -54 -19
-123 -31 -187 -32 -170 -19 -167 -127 3 -83 5 -92 23 -95 11 -2 25 -9 30 -17
6 -7 44 -34 85 -60 119 -76 303 -195 330 -214 14 -10 88 -57 165 -106 77 -48
147 -93 156 -99 9 -6 43 -30 76 -52 l59 -42 79 14 c44 7 95 16 113 19 23 4 39
16 56 44 20 31 34 40 82 54 79 22 131 28 252 28 56 0 104 4 107 9 3 6 16 5 31
0 54 -21 165 -10 469 44 44 8 101 17 126 21 l47 6 37 102 c20 56 47 129 60
162 26 67 76 227 72 230 -12 8 -99 45 -105 45 -4 0 -23 11 -42 23 -43 29 -115
48 -128 35 -16 -16 -75 -16 -101 -1 -17 11 -39 14 -75 10 l-51 -6 30 17 c21
12 56 17 120 18 50 1 92 3 95 4 3 0 24 3 47 6 37 3 52 -2 110 -39 114 -73 110
-72 146 -45 57 42 89 55 147 57 33 2 34 3 11 12 -14 5 -31 7 -40 4 -8 -3 -18
0 -23 7 -25 40 12 95 57 84 18 -5 25 -2 25 8 0 19 31 36 64 36 19 0 26 -5 26
-20 0 -21 -27 -40 -59 -40 -25 0 -26 -7 -3 -41 26 -39 48 -58 84 -74 l33 -15
-45 5 c-25 3 -58 1 -75 -4 -27 -8 -25 -9 20 -9 109 1 149 -13 180 -62 26 -40
138 -140 157 -140 7 0 21 -8 32 -19 12 -10 35 -27 51 -37 l30 -18 -20 24 c-29
37 -125 129 -183 177 -62 53 -77 91 -68 182 4 36 8 73 9 81 3 18 115 184 148
221 56 61 160 138 242 177 48 23 92 42 97 42 6 0 10 14 10 31 0 44 26 94 66
124 19 15 32 31 28 36 -8 14 -74 286 -74 308 0 31 63 63 126 66 61 2 65 -1 84
-65 12 -41 14 -43 20 -20 4 14 8 79 8 145 0 72 7 149 17 194 9 41 15 91 13
110 -3 34 -5 36 -43 39 -22 1 -65 -4 -95 -13 -30 -8 -66 -18 -79 -21 -14 -3
-28 -7 -33 -10 -11 -7 -10 -62 2 -104 17 -58 39 -78 94 -84 49 -5 89 -26 50
-26 -16 0 -17 -2 -4 -10 12 -8 11 -10 -7 -10 -13 0 -23 4 -23 10 0 6 -9 1 -20
-10 -11 -11 -20 -24 -20 -30 0 -20 -15 -9 -43 30 -16 22 -34 40 -41 40 -10 0
-15 31 -18 130 -2 83 -8 134 -16 142 -7 7 -12 24 -12 39 0 17 -9 32 -25 43
-31 20 -59 21 -52 2 7 -19 -28 -25 -65 -12 -40 15 -136 -39 -164 -91 -15 -28
-27 -38 -45 -38 -20 0 -24 6 -27 37 -3 36 6 47 71 83 10 6 18 15 18 20 0 20
-29 15 -60 -10 -32 -28 -61 -102 -61 -159 0 -16 -9 -49 -21 -73 -17 -36 -26
-43 -49 -43 -16 0 -30 5 -32 11 -3 8 -47 12 -133 12 -135 1 -218 -12 -327 -51
-31 -11 -74 -23 -94 -27 -21 -3 -43 -10 -49 -15 -6 -5 -20 -7 -32 -4 -11 3
-36 -1 -55 -9 -19 -8 -68 -18 -108 -22 -40 -4 -86 -11 -102 -15 -20 -6 -33 -4
-47 8 -43 38 -75 218 -57 320 7 36 6 87 -2 155 -14 123 -16 187 -7 248 9 55
-13 111 -54 137 -29 20 -59 21 -461 26 -248 3 -295 6 -360 23 -41 11 -79 17
-83 13 -4 -4 -3 -56 3 -116 15 -162 13 -265 -15 -629 -25 -319 -29 -462 -13
-471 4 -3 3 -15 -1 -27 -10 -26 -3 -87 10 -87 14 0 11 -20 -5 -36 -9 -8 -16
-10 -19 -4 -3 6 -4 5 -3 -1 2 -14 46 -20 46 -7 0 14 40 49 50 43 15 -10 12
-33 -7 -43 -25 -14 -9 -70 29 -104 17 -15 26 -28 19 -28 -8 0 -5 -10 8 -29 11
-15 18 -31 14 -35 -3 -3 -2 -6 3 -6 17 0 13 -39 -4 -42 -13 -3 -12 -5 6 -10
15 -4 22 -2 22 8 0 17 26 19 36 2 5 -8 2 -9 -9 -5 -14 5 -17 0 -17 -23 0 -16
5 -32 11 -36 8 -5 7 -9 -1 -14 -20 -12 -5 -35 32 -53 26 -12 34 -22 33 -39 -1
-13 -7 -24 -13 -24 -7 -1 -21 -2 -32 -3 -25 -1 -16 -27 11 -34 19 -5 19 -7 5
-29 -9 -14 -19 -46 -23 -73 l-6 -48 43 41 c29 29 51 42 71 42 16 0 39 11 55
25 15 14 35 25 45 25 11 0 18 3 18 8 -6 37 3 52 29 52 34 0 52 -16 52 -47 0
-13 24 -52 55 -90 36 -45 55 -77 55 -95 0 -16 4 -28 9 -28 5 0 11 33 13 73 3
60 0 75 -15 91 -10 10 -17 27 -14 37 3 10 -2 20 -12 24 -15 6 -14 7 2 16 22
13 25 74 3 66 -10 -4 -13 -1 -10 7 3 8 33 19 67 27 61 13 61 13 27 20 -36 8
-60 32 -59 58 0 11 4 8 11 -6 11 -24 32 -30 43 -14 4 8 42 9 64 2 2 0 -2 -8
-9 -16 -10 -12 -9 -15 8 -15 20 0 37 25 27 40 -8 13 14 23 52 24 29 1 35 -3
42 -29 4 -18 4 -33 -2 -36 -5 -4 -6 -12 -2 -19 6 -10 14 -105 16 -195 0 -55
-13 -116 -27 -122 -10 -4 -12 -16 -8 -44 4 -25 2 -44 -6 -54 -7 -8 -10 -26 -8
-39 4 -20 0 -26 -21 -31 -35 -8 -189 -36 -226 -40 -16 -1 -37 -5 -45 -8 -8 -3
-51 -10 -95 -16 -44 -6 -114 -17 -155 -25 -41 -7 -124 -21 -185 -31 -176 -26
-565 -90 -620 -101 -21 -4 -27 -3 -20 5 6 6 44 15 85 21 104 14 238 38 348 61
82 18 92 23 92 43 0 12 -4 26 -9 32 -15 15 -20 106 -22 379 -2 237 -4 263 -22
300 -16 32 -22 70 -27 200 -4 88 -6 163 -4 166 1 3 3 46 4 95 1 49 8 148 15
219 35 322 42 681 17 820 -10 59 -57 151 -83 165 -36 20 -77 11 -111 -23z
m2325 -1043 c18 -25 18 -26 0 -46 -16 -18 -26 -20 -100 -15 -44 2 -86 8 -92
11 -19 12 22 44 64 50 22 3 54 10 70 15 41 13 38 13 58 -15z m-1143 -50 c0
-24 -21 -65 -48 -93 -12 -12 -13 -6 -11 39 2 38 -1 55 -10 58 -19 6 1 17 38
19 27 2 31 -1 31 -23z m910 2 c0 -8 6 -17 13 -19 6 -3 -3 -6 -20 -6 -18 -1
-33 -4 -33 -8 0 -5 -11 -9 -25 -9 -14 -1 -25 2 -25 7 0 13 -34 11 -47 -2 -12
-12 -53 -3 -53 11 0 11 25 16 90 19 30 1 59 6 65 12 14 14 35 11 35 -5z m-400
-80 c0 -9 -30 -14 -35 -6 -4 6 3 10 14 10 12 0 21 -2 21 -4z m-580 -61 c0 -8
-4 -15 -10 -15 -5 0 -10 7 -10 15 0 8 5 15 10 15 6 0 10 -7 10 -15z m14 -302
c-4 -14 -8 -42 -9 -62 -3 -52 -4 -53 -17 -44 -7 4 -21 6 -30 5 -20 -4 -21 -1
-12 22 3 9 13 16 21 16 12 0 14 8 8 36 -7 37 3 53 33 54 8 0 10 -8 6 -27z
m-134 -132 c0 -6 -4 -13 -10 -16 -5 -3 -10 1 -10 9 0 9 5 16 10 16 6 0 10 -4
10 -9z m77 -7 c-3 -3 -12 -4 -19 -1 -8 3 -5 6 6 6 11 1 17 -2 13 -5z m183
-619 c-19 -7 -46 -14 -60 -14 l-25 0 25 14 c14 8 41 14 60 14 l35 -1 -35 -13z
m-1565 -195 c-11 -5 -33 -8 -50 -8 l-30 0 30 8 c17 4 39 8 50 8 l20 1 -20 -9z
m-98 -16 c-3 -3 -12 -4 -19 -1 -8 3 -5 6 6 6 11 1 17 -2 13 -5z"/>
<path d="M3156 8241 c-3 -5 -5 -86 -4 -180 1 -160 2 -171 19 -171 17 0 19 10
20 113 0 61 2 130 5 153 7 60 -20 118 -40 85z"/>
<path d="M4087 7408 c-21 -11 -22 -31 -3 -47 20 -16 46 -3 46 24 0 27 -19 37
-43 23z"/>
<path d="M4184 7385 c-9 -22 22 -53 37 -38 15 15 7 47 -14 51 -9 2 -20 -4 -23
-13z"/>
<path d="M3910 7331 c0 -5 7 -11 15 -15 9 -3 15 0 15 9 0 8 -7 15 -15 15 -8 0
-15 -4 -15 -9z"/>
<path d="M4078 7309 c-10 -6 -18 -21 -18 -34 0 -21 5 -25 29 -25 36 0 49 27
24 51 -13 13 -22 15 -35 8z"/>
<path d="M12621 7298 c-9 -10 -21 -18 -27 -18 -12 0 -25 -24 -29 -51 -1 -10
-14 -32 -29 -50 -58 -72 -93 -112 -146 -171 -30 -33 -58 -68 -61 -77 -10 -27
-19 -305 -10 -319 15 -25 106 27 212 123 108 98 183 160 215 180 18 11 63 41
101 68 37 26 107 71 156 100 69 41 87 56 87 74 0 23 -3 24 -60 27 -19 1 -26 8
-30 31 -5 28 -9 30 -48 31 -44 1 -129 18 -192 37 -19 6 -38 10 -42 9 -5 -1 -8
4 -8 11 0 20 -71 16 -89 -5z"/>
<path d="M4172 7283 c-19 -38 21 -61 48 -28 10 12 10 18 0 30 -17 20 -37 19
-48 -2z"/>
<path d="M3545 7270 c-3 -5 1 -31 9 -57 8 -26 19 -67 25 -90 11 -41 24 -53 35
-34 3 5 0 14 -8 20 -8 7 -12 20 -9 30 3 10 0 22 -6 25 -7 5 -8 14 -2 24 4 9 6
34 4 55 -4 27 -10 37 -24 37 -10 0 -20 -4 -24 -10z"/>
<path d="M3481 7254 c-1 -7 6 -27 14 -45 8 -19 14 -27 14 -19 0 18 -27 79 -28
64z"/>
<path d="M12145 7250 c-11 -5 -33 -9 -49 -9 -28 -1 -120 -25 -161 -42 -11 -4
-78 -31 -150 -58 -71 -27 -179 -71 -240 -96 -60 -26 -132 -55 -160 -65 -49
-18 -97 -38 -185 -78 -25 -11 -55 -23 -67 -27 -13 -3 -23 -14 -23 -23 0 -11 3
-13 8 -6 4 6 18 14 32 18 14 4 41 13 60 21 19 8 76 26 125 41 50 14 99 30 110
34 11 5 38 14 60 20 39 11 90 30 150 55 17 7 53 20 80 28 28 8 95 31 150 50
54 20 101 34 104 32 5 -6 -47 -55 -57 -53 -4 1 -23 -2 -42 -6 -19 -4 -42 -8
-50 -10 -8 -1 -43 -16 -77 -33 -67 -33 -188 -73 -222 -73 -12 0 -34 -9 -49
-20 -15 -11 -54 -28 -87 -39 -33 -10 -85 -29 -115 -41 -30 -12 -77 -28 -105
-35 -27 -7 -75 -23 -105 -35 -30 -12 -84 -30 -120 -40 -36 -10 -86 -27 -110
-38 -25 -10 -65 -24 -90 -30 -25 -6 -63 -20 -85 -32 -21 -11 -48 -20 -58 -20
-10 0 -33 -6 -50 -14 -18 -8 -49 -17 -69 -21 -21 -3 -38 -10 -38 -15 0 -6 -13
-10 -30 -10 -16 0 -30 -4 -30 -10 0 -5 -8 -10 -17 -10 -19 0 -73 -17 -122 -38
-18 -8 -39 -15 -45 -16 -6 -1 -15 -4 -21 -7 -5 -4 -37 -14 -70 -24 -33 -10
-64 -21 -70 -25 -5 -4 -25 -10 -42 -13 -18 -4 -52 -15 -75 -25 -57 -25 -93
-38 -151 -52 -26 -7 -50 -17 -53 -21 -3 -5 -20 -9 -39 -9 -19 0 -37 -4 -40
-10 -8 -12 -25 -13 -25 -1 0 5 12 12 27 16 15 3 30 10 33 14 6 9 228 88 385
137 28 9 59 20 70 24 11 4 47 17 80 28 33 10 119 40 190 66 72 26 141 50 154
53 12 3 39 14 60 24 40 20 20 26 -33 9 -17 -5 -105 -32 -196 -61 -91 -28 -194
-61 -230 -74 -36 -13 -96 -34 -135 -46 -63 -19 -113 -37 -170 -59 -11 -5 -69
-24 -130 -44 -60 -19 -148 -49 -195 -67 -47 -17 -98 -35 -115 -39 -55 -15
-130 -40 -150 -49 -26 -12 -405 -142 -544 -187 -58 -18 -146 -47 -194 -64 -48
-16 -94 -30 -101 -30 -8 0 -27 -7 -42 -15 -16 -8 -36 -15 -44 -15 -9 0 -20 -4
-25 -9 -6 -5 -41 -18 -80 -29 -38 -11 -119 -38 -180 -59 -60 -22 -186 -65
-280 -97 -93 -31 -179 -61 -190 -66 -11 -6 -92 -35 -180 -65 -439 -153 -573
-198 -603 -202 -18 -3 -35 -9 -38 -14 -3 -5 -19 -9 -35 -9 -18 0 -28 -4 -24
-10 4 -6 -16 -10 -53 -10 -41 0 -63 -5 -72 -15 -7 -8 -24 -15 -39 -15 -14 0
-34 -7 -44 -15 -11 -7 -25 -11 -33 -8 -8 3 -14 0 -14 -6 0 -6 -7 -8 -15 -5 -8
3 -47 -4 -87 -17 -40 -12 -83 -21 -95 -21 -13 1 -23 -2 -23 -7 0 -5 -19 -12
-42 -16 -24 -4 -47 -10 -53 -14 -5 -4 -28 -13 -50 -20 -22 -7 -49 -16 -60 -21
-23 -11 -245 -87 -290 -100 -42 -12 -149 -52 -155 -57 -9 -9 77 7 315 57 127
27 311 65 409 85 98 19 211 46 250 60 39 13 159 51 266 85 107 34 213 68 235
75 67 22 204 63 320 96 253 71 359 102 365 109 11 11 407 145 580 195 109 32
426 131 545 170 68 23 692 221 960 305 50 16 104 33 120 38 17 6 77 25 135 42
58 18 184 57 280 87 96 30 204 64 240 75 36 11 88 28 115 38 28 11 84 28 125
40 41 12 84 25 95 30 11 5 108 38 215 74 107 36 308 104 445 151 138 48 270
93 295 100 148 44 341 122 355 145 8 13 -15 91 -33 112 -10 12 -19 15 -26 9
-6 -5 -29 -12 -50 -16 -51 -10 -40 10 14 26 32 10 38 15 29 26 -13 15 -16 15
-44 3z m-2531 -939 c5 -7 -131 -59 -171 -65 -7 -1 -16 -5 -19 -9 -4 -4 -14 -7
-23 -7 -9 0 -29 -7 -46 -16 -16 -8 -65 -24 -109 -36 -44 -11 -87 -24 -96 -29
-34 -18 -201 -69 -227 -69 -25 1 -24 2 12 16 22 8 112 40 200 70 88 30 169 59
180 64 23 10 230 77 260 83 32 7 34 7 39 -2z m-724 -241 c0 -5 -4 -10 -9 -10
-6 0 -13 5 -16 10 -3 6 1 10 9 10 9 0 16 -4 16 -10z m-36 -9 c6 -9 -236 -92
-264 -90 -19 0 7 11 140 60 119 43 117 42 124 30z m-289 -100 c-12 -10 -65
-24 -65 -16 0 2 15 9 33 14 43 12 42 12 32 2z m-125 -42 c-54 -23 -140 -46
-140 -39 0 4 30 16 68 28 70 22 115 28 72 11z m-185 -58 c-6 -5 -50 -22 -100
-39 -49 -16 -108 -36 -130 -44 -79 -29 -105 -36 -105 -28 0 9 15 15 190 73
147 48 159 52 145 38z m-345 -119 c0 -4 -38 -19 -85 -33 -104 -32 -113 -21
-12 14 79 27 97 31 97 19z m-200 -67 c-7 -8 -22 -15 -34 -14 -18 0 -16 3 9 14
39 18 40 18 25 0z m-61 -19 c-14 -13 -347 -120 -334 -108 8 9 305 110 324 111
8 1 12 -1 10 -3z m-379 -130 c-14 -7 -38 -16 -55 -19 -26 -6 -25 -4 10 13 45
21 84 26 45 6z m-120 -41 c-7 -8 -17 -12 -22 -9 -6 4 -5 10 3 15 22 14 33 10
19 -6z m-91 -29 c-2 -1 -19 -8 -36 -14 -37 -12 -45 -6 -10 8 22 9 54 13 46 6z"/>
<path d="M4050 7174 c-11 -12 -11 -18 2 -30 16 -16 48 -9 48 10 0 13 -20 36
-31 36 -4 0 -12 -7 -19 -16z"/>
<path d="M4161 7166 c-12 -14 -5 -46 9 -46 5 0 16 7 25 16 12 12 13 19 4 30
-14 18 -24 18 -38 0z"/>
<path d="M4041 7061 c-19 -12 -6 -41 19 -41 16 0 21 5 18 22 -3 25 -17 32 -37
19z"/>
<path d="M4150 7045 c-13 -16 -6 -35 15 -35 15 0 24 19 17 38 -6 16 -17 15
-32 -3z"/>
<path d="M3536 7003 c8 -34 10 -37 23 -29 7 5 7 15 -1 31 -15 34 -30 32 -22
-2z"/>
<path d="M3608 7005 c4 -23 21 -33 34 -19 12 11 -5 44 -22 44 -13 0 -16 -6
-12 -25z"/>
<path d="M3751 6976 c12 -10 60 -16 54 -6 -3 5 -18 10 -32 10 -15 0 -24 -2
-22 -4z"/>
<path d="M3829 6947 c6 -8 9 -16 6 -19 -3 -3 4 -13 15 -23 11 -10 23 -16 26
-12 7 7 -36 67 -49 67 -5 0 -4 -6 2 -13z"/>
<path d="M4030 6930 c0 -5 5 -10 10 -10 6 0 10 5 10 10 0 6 -4 10 -10 10 -5 0
-10 -4 -10 -10z"/>
<path d="M7052 6820 c-29 -52 -22 -52 12 0 14 22 23 40 19 40 -5 0 -18 -18
-31 -40z"/>
<path d="M11040 6841 c0 -5 9 -7 20 -4 11 3 20 7 20 9 0 2 -9 4 -20 4 -11 0
-20 -4 -20 -9z"/>
<path d="M10698 6723 c-16 -2 -28 -9 -28 -15 0 -6 10 -8 23 -4 12 3 28 6 35 6
6 0 12 5 12 10 0 6 -3 9 -7 9 -5 -1 -20 -4 -35 -6z"/>
<path d="M1027 6668 c-2 -13 -8 -31 -12 -40 -5 -12 -3 -18 7 -18 9 0 15 13 16
40 3 44 -3 53 -11 18z"/>
<path d="M1605 6660 c-3 -5 -1 -10 4 -10 6 0 11 5 11 10 0 6 -2 10 -4 10 -3 0
-8 -4 -11 -10z"/>
<path d="M4260 6656 c0 -8 5 -18 10 -21 6 -3 10 1 10 9 0 8 -4 18 -10 21 -5 3
-10 -1 -10 -9z"/>
<path d="M4220 6627 c-24 -18 -41 -69 -38 -109 2 -31 5 -35 19 -27 37 19 61
62 55 98 -7 43 -17 53 -36 38z"/>
<path d="M4313 6625 c4 -8 2 -17 -3 -20 -4 -3 -10 1 -13 7 -2 7 -8 10 -12 5
-14 -12 30 -62 58 -65 33 -4 34 4 2 51 -26 38 -42 49 -32 22z"/>
<path d="M7768 6508 c-24 -40 -49 -88 -55 -107 l-13 -34 35 38 c30 31 91 115
119 163 5 8 -1 12 -18 12 -21 0 -33 -13 -68 -72z"/>
<path d="M14201 6498 c-5 -13 -12 -38 -15 -55 -10 -46 -26 -51 -26 -9 0 19 -4
37 -9 41 -12 7 -28 -42 -41 -130 -6 -38 -19 -81 -29 -95 -9 -14 -20 -33 -24
-42 -3 -10 -16 -18 -27 -18 -11 0 -20 -4 -20 -10 0 -17 -38 -11 -50 8 -8 12
-13 13 -16 5 -3 -7 -16 -13 -29 -13 -33 0 -40 -17 -18 -42 18 -21 18 -21 -20
-14 -24 5 -37 4 -33 -2 11 -18 -40 -41 -78 -35 -25 4 -36 2 -36 -7 0 -7 6 -10
13 -7 7 3 19 -3 25 -13 11 -18 43 -18 68 1 6 5 13 6 16 4 3 -3 34 3 69 14 35
11 116 32 179 47 138 32 163 45 151 77 -5 12 -9 58 -10 102 -1 44 -5 105 -10
135 -5 30 -7 58 -5 62 2 4 0 9 -6 13 -5 3 -14 -4 -19 -17z"/>
<path d="M15956 6505 c-22 -8 -58 -17 -80 -20 -52 -8 -104 -24 -137 -41 -15
-7 -53 -21 -85 -30 -106 -29 -248 -65 -299 -75 -27 -6 -57 -17 -66 -25 -8 -8
-23 -14 -32 -14 -9 0 -58 -11 -109 -25 -113 -30 -169 -43 -228 -56 -44 -9
-211 -60 -280 -84 -45 -17 -210 -55 -235 -55 -11 0 -31 -6 -45 -13 -14 -8 -41
-17 -60 -20 -33 -6 -178 -47 -365 -103 -44 -13 -125 -35 -180 -48 -55 -14
-140 -37 -190 -50 -232 -64 -404 -109 -440 -117 -22 -5 -74 -18 -115 -29 -41
-12 -96 -25 -122 -30 -70 -13 -289 -68 -403 -100 -55 -16 -235 -64 -400 -106
-165 -42 -331 -85 -370 -96 -38 -11 -90 -24 -115 -30 -25 -6 -112 -28 -195
-50 -82 -22 -179 -46 -214 -54 -35 -8 -67 -16 -71 -19 -5 -3 -28 -9 -52 -14
-44 -10 -97 -24 -228 -60 -171 -47 -233 -64 -395 -107 -238 -63 -348 -92 -435
-113 -41 -11 -104 -28 -140 -39 -36 -11 -90 -25 -120 -32 -30 -6 -75 -18 -100
-26 -25 -8 -94 -26 -155 -40 -60 -14 -139 -34 -175 -44 -128 -37 -288 -80
-450 -120 -91 -23 -241 -61 -335 -84 -93 -24 -206 -51 -250 -61 -44 -10 -105
-26 -135 -35 -30 -10 -89 -26 -130 -35 -41 -9 -80 -21 -85 -25 -6 -5 -48 -16
-95 -25 -47 -10 -114 -28 -150 -40 -36 -13 -87 -26 -115 -30 -27 -4 -84 -17
-125 -30 -41 -13 -104 -29 -140 -35 -36 -6 -83 -17 -105 -25 -22 -8 -105 -30
-185 -50 -80 -20 -190 -47 -245 -62 -55 -14 -167 -40 -249 -59 -82 -18 -169
-40 -195 -49 -25 -8 -68 -17 -96 -21 -79 -9 -81 -17 -12 -61 l41 -26 201 6
c224 7 1196 42 1525 56 l215 9 315 119 c342 130 456 179 488 211 65 65 87 49
97 -68 4 -44 4 -111 0 -148 -5 -54 -4 -70 7 -74 7 -3 55 -1 106 3 151 13 533
29 677 29 124 0 135 -2 145 -20 6 -11 17 -20 25 -20 8 0 15 -9 15 -20 0 -30
30 -25 120 20 85 43 113 50 104 25 -4 -8 -1 -15 4 -15 6 0 17 -6 25 -14 16
-16 73 -6 287 52 63 17 255 68 425 112 171 45 411 109 535 142 124 33 266 70
315 83 180 47 331 87 365 96 19 6 69 19 110 29 226 57 661 176 698 190 12 5
22 14 22 20 0 15 57 12 63 -4 3 -8 -4 -47 -17 -88 l-22 -73 -64 -17 c-36 -10
-105 -28 -155 -39 -71 -17 -96 -28 -117 -50 -16 -17 -37 -29 -52 -29 -14 0
-45 -7 -68 -15 -24 -8 -72 -21 -108 -30 -92 -23 -120 -31 -165 -47 -22 -9 -58
-18 -80 -22 -22 -4 -71 -22 -110 -41 -60 -28 -155 -59 -435 -141 -30 -9 -66
-20 -79 -26 -28 -10 -180 -49 -316 -80 -49 -11 -127 -31 -172 -44 -45 -14
-112 -31 -150 -39 -37 -8 -98 -25 -134 -39 -36 -13 -85 -27 -110 -31 -24 -4
-69 -15 -99 -25 -73 -24 -225 -59 -280 -66 -25 -2 -52 -7 -60 -10 -8 -3 -29
-8 -46 -10 -17 -2 -60 -17 -95 -32 -35 -16 -95 -36 -134 -46 -38 -9 -122 -34
-185 -57 -63 -22 -137 -47 -165 -55 -27 -8 -63 -20 -80 -25 -16 -6 -43 -15
-60 -19 -55 -16 -110 -39 -93 -40 20 0 224 54 873 232 242 66 481 131 530 145
50 13 153 41 230 63 77 21 185 51 240 65 55 15 197 53 315 86 436 121 568 158
695 193 374 103 410 114 407 129 -2 11 35 21 160 46 197 39 256 53 418 98 69
20 139 39 155 43 64 16 624 171 685 190 36 11 148 42 250 70 102 28 257 71
345 96 88 25 210 58 270 75 61 17 139 39 175 50 36 10 160 45 275 78 116 33
224 64 240 69 17 5 76 22 133 37 83 22 102 31 102 46 0 21 -17 24 -52 10 -46
-19 -63 -24 -70 -23 -4 1 -39 -12 -77 -28 -39 -17 -83 -32 -98 -34 -34 -5
-126 -28 -215 -55 -38 -11 -68 -18 -68 -16 0 2 -30 -7 -67 -19 -38 -13 -71
-24 -76 -24 -22 -4 -78 -19 -217 -59 -162 -47 -186 -53 -470 -127 -220 -57
-299 -78 -430 -114 -58 -16 -190 -53 -295 -81 -104 -29 -231 -64 -281 -78 -81
-23 -96 -24 -130 -13 -46 15 -64 28 -64 45 0 15 16 22 85 40 28 7 106 29 175
48 69 20 226 61 350 91 124 31 282 72 350 92 69 20 136 39 150 41 14 3 72 18
128 35 111 31 147 41 612 161 74 20 180 49 235 66 55 16 127 36 160 45 33 8
114 29 180 47 66 17 133 34 148 36 16 3 31 11 33 17 2 6 3 268 2 583 l-3 571
-39 -13z"/>
<path d="M3274 6455 c-30 -30 -30 -78 -1 -83 25 -5 99 71 91 92 -10 25 -61 20
-90 -9z"/>
<path d="M1548 6387 c-3 -19 -2 -25 4 -19 6 6 8 18 6 28 -3 14 -5 12 -10 -9z"/>
<path d="M4416 6361 c-40 -23 -46 -31 -52 -69 -4 -24 -4 -45 -1 -48 3 -3 37 4
75 16 52 17 73 28 81 47 17 38 14 48 -23 64 -33 15 -36 15 -80 -10z"/>
<path d="M1060 6350 c0 -11 5 -20 10 -20 6 0 10 9 10 20 0 11 -4 20 -10 20 -5
0 -10 -9 -10 -20z"/>
<path d="M3444 6311 c-100 -93 -211 -150 -300 -153 -49 -3 -53 -7 -26 -31 34
-31 135 0 240 72 74 51 160 133 154 149 -6 19 -13 15 -68 -37z"/>
<path d="M7668 6331 c-10 -10 -18 -24 -18 -31 0 -8 8 -3 20 10 11 13 20 27 20
32 0 11 -2 10 -22 -11z"/>
<path d="M1462 6267 c-17 -20 -12 -40 6 -28 8 5 12 16 10 26 -3 17 -4 17 -16
2z"/>
<path d="M1089 6243 c4 -16 6 -34 4 -40 -3 -7 3 -13 12 -13 9 0 30 -8 48 -17
47 -25 208 -22 239 4 13 10 24 24 25 31 3 14 -35 16 -70 3 -28 -11 -148 9
-171 28 -9 8 -16 9 -21 2 -4 -7 -11 -7 -19 2 -8 6 -12 15 -9 20 2 4 -7 7 -21
7 -22 0 -24 -3 -17 -27z"/>
<path d="M1424 6249 c-3 -6 -1 -16 5 -22 8 -8 11 -5 11 11 0 24 -5 28 -16 11z"/>
<path d="M4306 6187 c-35 -26 -13 -123 34 -150 36 -22 46 -17 54 26 12 64 -51
151 -88 124z"/>
<path d="M7227 6151 c-9 -21 -17 -44 -17 -52 0 -8 -7 -22 -15 -32 -7 -11 -11
-26 -8 -35 4 -10 2 -13 -5 -8 -8 5 -10 2 -6 -8 3 -9 1 -16 -5 -16 -6 0 -11 -9
-11 -19 0 -11 -6 -22 -12 -24 -9 -4 -8 -6 2 -6 17 -1 30 22 75 142 33 86 34
131 2 58z"/>
<path d="M6872 6006 c1 -10 8 -17 13 -17 15 1 12 24 -3 29 -9 3 -13 -2 -10
-12z"/>
<path d="M6903 5962 c-12 -26 -32 -69 -43 -95 -12 -27 -24 -46 -27 -44 -4 5
10 48 42 130 4 9 3 17 -2 17 -10 0 -53 -80 -53 -97 0 -6 -9 -22 -21 -37 -19
-24 -19 -26 -2 -26 24 0 85 -49 62 -50 -9 0 -20 -7 -23 -16 -3 -8 -11 -12 -17
-9 -5 4 -17 -1 -24 -11 -13 -18 -14 -18 -8 4 4 15 -1 29 -13 40 -18 17 -19 16
-36 -18 -17 -33 -17 -36 -1 -48 10 -7 23 -10 29 -8 7 3 15 -2 18 -10 3 -8 12
-14 20 -14 7 0 16 -7 20 -15 3 -8 14 -15 25 -15 11 0 23 -4 26 -10 4 -6 -10
-10 -34 -10 -45 0 -55 -14 -16 -24 18 -5 25 -13 25 -31 0 -28 12 -32 33 -11 7
8 24 16 37 18 28 4 39 28 13 28 -10 0 -25 5 -33 11 -11 8 -6 9 21 5 28 -5 38
-3 43 9 3 9 0 15 -10 15 -9 0 -14 7 -12 17 2 12 15 17 46 19 49 2 74 18 65 41
-4 10 -2 14 5 9 18 -11 23 29 8 65 -13 31 -12 37 10 81 13 26 24 55 24 65 0
31 -31 -9 -50 -67 -17 -50 -51 -100 -69 -100 -10 0 23 120 46 163 8 16 12 31
10 34 -3 2 -18 -22 -33 -54 -25 -51 -42 -80 -116 -192 -22 -32 -23 -21 -3 19
8 16 12 36 9 44 -3 9 6 39 20 68 14 28 26 59 26 69 0 9 7 22 15 29 20 16 19
46 -1 54 -26 10 -28 8 -51 -42z"/>
<path d="M7120 5989 c0 -5 5 -7 10 -4 6 3 10 8 10 11 0 2 -4 4 -10 4 -5 0 -10
-5 -10 -11z"/>
<path d="M2521 5951 c-9 -16 -10 -26 -2 -34 13 -13 25 12 19 40 -3 16 -5 15
-17 -6z"/>
<path d="M0 5864 c0 -34 28 -73 54 -74 5 0 23 -11 40 -24 17 -13 65 -41 106
-62 41 -21 77 -41 80 -44 6 -6 52 -29 120 -60 25 -11 72 -35 105 -53 135 -75
260 -137 275 -137 8 1 2 8 -15 17 -16 9 -32 19 -35 23 -3 4 -43 29 -90 55 -47
26 -149 90 -226 141 -78 52 -144 94 -148 94 -3 0 -27 16 -53 36 -27 21 -62 43
-79 50 -17 7 -45 27 -63 43 -46 43 -71 41 -71 -5z"/>
<path d="M12820 5790 l-25 -8 27 -1 c15 -1 30 4 33 9 7 11 0 11 -35 0z"/>
<path d="M12632 5774 c-5 -8 -28 -18 -51 -21 -28 -4 -38 -9 -29 -14 15 -10 88
-1 103 12 5 6 4 9 -4 9 -8 0 -11 6 -7 15 7 20 -1 19 -12 -1z"/>
<path d="M12493 5742 c-40 -6 -25 -22 20 -21 23 0 35 3 27 6 -8 3 -17 9 -20
12 -3 4 -15 5 -27 3z"/>
<path d="M12389 5729 c-8 -5 -27 -9 -42 -9 -16 0 -26 -3 -24 -7 3 -5 -17 -6
-43 -5 -40 3 -49 1 -53 -15 -4 -16 -5 -16 -6 0 -1 24 -21 22 -21 -2 0 -30 14
-33 82 -21 109 20 184 38 158 39 -18 1 -21 4 -12 10 11 6 9 9 -6 13 -11 3 -26
2 -33 -3z"/>
<path d="M12145 5690 c-25 -6 -26 -8 -7 -9 14 -1 20 -5 17 -12 -4 -6 -13 -8
-21 -5 -8 3 -14 1 -14 -4 0 -6 16 -10 35 -10 31 0 35 3 35 25 0 14 -3 24 -7
24 -5 -1 -21 -5 -38 -9z"/>
<path d="M11320 5666 c-52 -12 -111 -27 -130 -33 -19 -6 -62 -16 -95 -23 -33
-6 -82 -19 -110 -27 -27 -8 -84 -21 -125 -29 -109 -19 -200 -41 -208 -49 -15
-16 812 35 841 51 13 8 13 14 2 47 -14 41 -51 88 -69 86 -6 0 -54 -11 -106
-23z"/>
<path d="M12081 5664 c0 -11 3 -14 6 -6 3 7 2 16 -1 19 -3 4 -6 -2 -5 -13z"/>
<path d="M6390 5613 c0 -15 18 -35 23 -27 3 5 -1 15 -9 22 -8 7 -14 9 -14 5z"/>
<path d="M11955 5549 c-104 -18 -419 -54 -565 -64 -47 -3 -116 -8 -155 -10
-38 -3 -189 -9 -335 -15 -268 -10 -489 -22 -700 -40 -63 -5 -121 -10 -127 -10
-7 0 -13 -4 -13 -10 0 -5 18 -10 40 -10 39 0 49 -11 32 -36 -8 -11 -142 -43
-292 -69 -52 -9 -121 -23 -153 -31 -31 -8 -81 -19 -110 -24 -92 -16 -183 -38
-159 -39 24 -1 618 112 682 129 19 6 43 10 53 10 26 0 20 -28 -10 -45 -28 -15
-27 -15 22 -10 28 4 66 9 85 13 42 9 112 1 108 -12 -2 -5 -14 -11 -28 -12 -31
-3 -204 -36 -330 -62 -52 -12 -131 -28 -175 -36 -234 -46 -667 -133 -860 -173
-121 -25 -260 -53 -310 -63 -49 -10 -193 -39 -320 -65 -126 -26 -261 -54 -300
-61 -38 -8 -88 -18 -110 -23 -22 -5 -112 -23 -200 -40 -88 -18 -187 -38 -220
-46 -33 -8 -105 -24 -160 -36 -55 -12 -138 -30 -185 -40 -47 -11 -143 -30
-215 -44 -203 -38 -374 -73 -445 -90 -36 -9 -85 -21 -110 -26 -25 -5 -65 -14
-90 -19 -25 -6 -65 -15 -90 -20 -50 -9 -191 -41 -315 -70 -83 -20 -109 -25
-309 -66 -66 -13 -121 -25 -122 -27 -2 -2 -5 -14 -6 -28 -5 -45 41 -40 442 51
74 17 212 47 305 66 202 43 266 57 360 77 677 147 1543 328 2055 428 80 15
179 35 220 44 148 32 558 116 705 145 83 16 249 50 370 75 419 88 413 87 438
74 12 -6 30 -18 39 -27 13 -11 30 -13 70 -8 29 4 71 9 93 11 22 1 92 17 155
33 63 17 187 49 275 72 88 22 207 54 265 70 110 30 459 123 545 145 68 17 278
75 290 80 22 8 -35 1 -130 -16z"/>
<path d="M6778 5533 c7 -3 16 -2 19 1 4 3 -2 6 -13 5 -11 0 -14 -3 -6 -6z"/>
<path d="M6818 5518 c5 -5 16 -8 23 -6 8 3 3 7 -10 11 -17 4 -21 3 -13 -5z"/>
<path d="M3370 5311 c0 -14 6 -17 25 -13 28 5 33 17 9 26 -26 10 -34 7 -34
-13z"/>
<path d="M3430 5274 c0 -14 -10 -26 -30 -34 -20 -8 -30 -20 -30 -34 0 -11 -4
-27 -9 -35 -7 -11 -13 -11 -32 3 -26 18 -69 22 -69 6 0 -16 37 -30 83 -30 34
0 50 6 70 26 30 30 43 76 28 101 -10 17 -10 16 -11 -3z"/>
<path d="M10050 5265 c-25 -14 -25 -14 10 -8 40 6 65 23 35 23 -11 -1 -31 -7
-45 -15z"/>
<path d="M9967 5250 c-20 -4 -41 -10 -45 -15 -9 -10 68 4 88 16 17 10 10 10
-43 -1z"/>
<path d="M9853 5223 c9 -2 25 -2 35 0 9 3 1 5 -18 5 -19 0 -27 -2 -17 -5z"/>
<path d="M9315 5175 l-30 -14 35 6 c19 3 44 10 55 14 18 7 17 8 -5 8 -14 0
-38 -6 -55 -14z"/>
<path d="M9190 5155 c-30 -7 -84 -18 -120 -26 -35 -7 -59 -14 -53 -16 13 -5
252 43 261 51 8 9 -26 5 -88 -9z"/>
<path d="M8903 5101 c-24 -4 -46 -10 -49 -14 -11 -11 35 -7 91 8 53 13 28 17
-42 6z"/>
<path d="M8818 5073 c7 -3 16 -2 19 1 4 3 -2 6 -13 5 -11 0 -14 -3 -6 -6z"/>
<path d="M8768 5063 c7 -3 16 -2 19 1 4 3 -2 6 -13 5 -11 0 -14 -3 -6 -6z"/>
<path d="M8689 5056 c-2 -2 -24 -7 -49 -10 -25 -4 -61 -11 -80 -15 -69 -17 12
-10 105 9 50 10 76 19 59 19 -17 1 -33 -1 -35 -3z"/>
<path d="M8458 5003 c6 -2 18 -2 25 0 6 3 1 5 -13 5 -14 0 -19 -2 -12 -5z"/>
<path d="M8398 4993 c6 -2 18 -2 25 0 6 3 1 5 -13 5 -14 0 -19 -2 -12 -5z"/>
<path d="M8298 4973 c6 -2 18 -2 25 0 6 3 1 5 -13 5 -14 0 -19 -2 -12 -5z"/>
<path d="M8028 4913 c7 -3 16 -2 19 1 4 3 -2 6 -13 5 -11 0 -14 -3 -6 -6z"/>
<path d="M5928 4853 c12 -2 30 -2 40 0 9 3 -1 5 -23 4 -22 0 -30 -2 -17 -4z"/>
<path d="M5758 4813 c7 -3 16 -2 19 1 4 3 -2 6 -13 5 -11 0 -14 -3 -6 -6z"/>
<path d="M5540 4769 c0 -7 -10 -9 -24 -5 -14 3 -27 2 -30 -2 -3 -5 -24 -7 -47
-6 -28 1 -37 -1 -28 -7 10 -6 8 -9 -10 -9 -16 0 -21 -4 -15 -9 10 -11 174 16
174 29 0 4 14 7 31 8 50 1 47 12 -4 12 -28 0 -47 -5 -47 -11z"/>
<path d="M15925 4449 c-27 -11 -68 -24 -90 -29 -49 -11 -100 -25 -140 -39 -16
-6 -68 -21 -115 -35 -47 -13 -121 -36 -165 -49 -321 -102 -489 -153 -585 -178
-41 -11 -120 -36 -175 -54 -55 -19 -158 -50 -230 -70 -71 -20 -145 -43 -165
-50 -32 -12 -87 -29 -280 -87 -204 -61 -318 -102 -387 -137 -43 -22 -109 -50
-148 -62 -38 -12 -74 -25 -79 -30 -6 -5 -21 -9 -35 -9 -24 0 -83 -15 -281 -69
-84 -23 -229 -66 -275 -82 -227 -75 -338 -110 -455 -140 -25 -6 -54 -15 -65
-20 -11 -5 -40 -13 -65 -18 -25 -6 -139 -35 -255 -66 -228 -61 -273 -73 -410
-105 -49 -12 -124 -33 -165 -47 -41 -14 -79 -26 -85 -27 -56 -14 -73 -19 -90
-26 -11 -5 -60 -18 -110 -31 -49 -12 -94 -24 -100 -28 -10 -6 -38 -14 -275
-80 -326 -90 -409 -114 -490 -143 -47 -16 -125 -40 -175 -54 -49 -14 -103 -32
-119 -40 -16 -8 -36 -14 -45 -14 -8 0 -45 -9 -81 -20 -375 -112 -471 -142
-510 -154 -25 -8 -72 -19 -105 -25 -97 -15 -145 -34 -184 -71 -36 -34 -76 -55
-196 -100 -33 -13 -87 -36 -120 -53 -92 -45 -170 -72 -290 -102 -60 -14 -119
-30 -130 -35 -35 -17 -244 -79 -400 -119 -129 -34 -224 -52 -395 -77 -19 -3
-63 -12 -98 -20 -95 -23 -159 -14 -203 27 -41 40 -59 84 -59 149 0 38 6 53 33
82 18 21 46 39 65 43 18 4 45 13 59 20 l26 13 -29 5 -29 4 30 2 c23 1 27 3 15
11 -12 8 -9 10 13 10 16 0 26 -4 23 -9 -3 -5 1 -11 9 -15 17 -6 47 3 41 13 -2
3 18 6 44 5 29 0 47 3 43 9 -4 6 8 7 31 3 32 -6 41 -3 66 21 19 18 30 38 30
55 0 31 -13 35 -57 17 -15 -6 -37 -15 -48 -19 -11 -5 -42 -13 -69 -20 -27 -6
-65 -18 -85 -27 -20 -10 -47 -18 -61 -19 -69 -5 -246 -95 -307 -155 -19 -19
-60 -56 -92 -84 -33 -27 -60 -54 -60 -60 -1 -5 -10 -18 -21 -30 -11 -11 -32
-35 -46 -52 -14 -18 -32 -33 -40 -33 -8 0 -20 -13 -25 -30 -6 -16 -17 -30 -25
-30 -8 0 -14 -6 -14 -14 0 -8 -13 -17 -29 -21 -16 -3 -32 -13 -35 -21 -6 -15
-125 -73 -191 -94 -22 -6 -54 -18 -72 -26 -17 -8 -37 -14 -45 -14 -17 -1 -116
-35 -125 -44 -3 -3 -17 -6 -31 -6 -13 0 -38 -6 -55 -14 -18 -7 -52 -19 -77
-26 -25 -6 -65 -20 -90 -30 -25 -10 -63 -21 -85 -25 -42 -6 -51 -8 -75 -18
-15 -5 -203 -55 -248 -64 -12 -3 -25 -9 -28 -14 -3 -5 -23 -9 -45 -9 -22 0
-65 -9 -97 -21 -31 -11 -75 -25 -97 -30 -21 -6 -44 -14 -51 -20 -6 -5 -18 -7
-25 -4 -15 6 -144 -29 -162 -43 -7 -5 -43 -15 -82 -22 -38 -6 -83 -18 -100
-26 -16 -8 -46 -17 -65 -20 -19 -3 -44 -9 -55 -13 -27 -11 -83 -31 -123 -45
-17 -6 -32 -14 -32 -18 0 -5 -8 -8 -17 -8 -10 0 -54 -10 -98 -21 -44 -12 -107
-27 -140 -35 -33 -7 -80 -20 -105 -29 -25 -9 -67 -21 -95 -26 -101 -17 -120
-22 -125 -29 -3 -5 -27 -10 -54 -13 -26 -3 -53 -10 -59 -16 -6 -6 -22 -11 -36
-11 -27 0 -48 -6 -156 -40 -38 -13 -83 -24 -100 -26 -32 -4 -240 -68 -293 -90
-18 -8 -43 -14 -57 -14 -13 0 -30 -7 -39 -15 -8 -8 -30 -15 -50 -15 -19 0 -61
-7 -93 -16 -32 -9 -74 -20 -93 -25 -93 -23 -165 -45 -168 -52 -2 -4 -26 -7
-52 -7 -38 0 -52 5 -63 20 -9 13 -20 18 -31 14 -13 -5 -16 1 -16 36 0 44 27
79 61 80 24 0 37 20 41 60 3 31 6 35 29 33 21 -1 28 4 31 22 3 13 0 29 -5 34
-14 14 -104 14 -112 1 -4 -6 -15 -8 -25 -5 -11 3 -28 1 -39 -5 -11 -5 -99 -15
-195 -20 -97 -6 -187 -15 -201 -20 -15 -6 -39 -10 -55 -10 -16 0 -32 -5 -36
-11 -4 -7 -21 -9 -40 -6 -19 3 -36 2 -39 -2 -2 -5 -31 -11 -62 -14 -32 -3 -87
-10 -123 -17 -37 -7 -100 -9 -145 -6 -44 3 -105 2 -135 -2 -53 -8 -54 -8 -23
-16 18 -4 33 -11 33 -15 0 -5 11 -20 25 -35 19 -21 33 -26 61 -24 25 1 39 -3
45 -15 7 -12 24 -17 57 -18 26 0 56 -4 67 -9 l20 -9 -20 -1 c-12 -1 -15 -4 -7
-7 7 -3 18 -16 23 -30 8 -20 14 -24 32 -18 41 14 97 17 97 7 0 -6 -8 -12 -17
-15 -11 -2 -2 -7 20 -12 21 -4 41 -14 44 -21 7 -19 -15 -44 -38 -44 -21 0 -25
-15 -6 -24 6 -3 -5 -4 -25 -1 -20 3 -39 1 -43 -5 -3 -6 -10 -8 -15 -5 -5 3
-17 1 -27 -4 -10 -6 -75 -13 -146 -17 -70 -3 -127 -10 -127 -14 0 -4 -26 -11
-57 -15 -69 -8 -143 -60 -143 -99 0 -13 -7 -29 -15 -36 -9 -7 -14 -15 -11 -17
2 -2 0 -20 -4 -40 -7 -29 -4 -45 13 -77 12 -23 25 -43 28 -46 3 -3 12 -20 20
-37 l14 -33 3335 1 c2413 1 3327 4 3308 12 -16 6 -28 16 -28 22 0 7 -12 17
-27 24 -34 16 -40 21 -128 107 -65 64 -85 93 -161 244 -16 31 -81 107 -156
183 -32 32 -58 62 -58 66 0 5 -7 11 -15 15 -8 3 -15 12 -15 21 0 8 -4 15 -8
15 -9 0 -79 115 -104 170 -20 44 -34 195 -19 205 16 9 13 67 -4 89 -9 12 -15
42 -15 74 0 53 1 55 70 126 38 40 70 78 70 85 0 7 4 10 9 7 5 -3 14 8 21 24 7
17 16 30 21 30 5 0 11 11 15 25 3 14 9 25 13 25 3 0 15 18 25 40 14 29 25 40
42 40 41 0 104 36 177 100 41 36 153 70 192 57 48 -16 78 -53 83 -107 4 -46 6
-48 46 -60 22 -7 50 -16 61 -20 11 -4 31 -3 45 2 25 9 115 29 138 31 6 0 12 3
12 7 0 3 15 11 33 18 25 9 41 26 60 61 15 27 27 58 27 69 0 11 10 38 22 61 17
33 29 42 57 47 20 4 72 19 116 34 44 15 107 33 140 40 33 7 72 19 87 27 23 11
32 11 48 1 17 -11 32 -36 35 -58 2 -19 22 -31 49 -29 61 4 74 -2 130 -55 l56
-55 2 -78 c3 -121 2 -130 -23 -162 -13 -16 -28 -30 -32 -30 -9 -1 -155 -126
-173 -147 -6 -8 -21 -14 -33 -14 -11 0 -30 -9 -40 -19 -19 -19 -67 -44 -108
-56 -13 -3 -23 -11 -23 -16 0 -5 -11 -9 -25 -9 -13 0 -28 -6 -32 -13 -4 -8
-46 -32 -93 -54 -47 -22 -101 -54 -120 -72 -19 -17 -41 -29 -48 -26 -8 3 -34
-2 -58 -10 -25 -8 -60 -15 -78 -15 -39 0 -171 -51 -238 -92 -26 -16 -52 -27
-58 -23 -5 3 -10 0 -10 -8 0 -17 -44 -39 -63 -31 -8 3 -34 -2 -58 -10 -24 -9
-51 -16 -59 -16 -8 0 -27 -7 -42 -14 -16 -9 -30 -11 -33 -5 -4 5 -27 9 -53 9
l-47 -1 36 -32 c63 -57 93 -82 214 -177 66 -51 122 -96 125 -100 3 -3 29 -25
58 -48 57 -44 85 -51 116 -27 11 8 30 15 43 15 13 0 36 6 51 13 15 8 54 19 87
26 33 7 67 19 75 26 8 8 20 14 25 15 29 3 63 14 84 27 13 9 53 19 88 23 36 5
72 15 82 24 12 11 37 16 74 16 31 0 57 5 57 10 0 6 10 10 23 10 35 1 247 47
302 67 76 27 94 47 84 91 -4 20 -7 37 -6 37 55 24 330 35 382 15 15 -6 41 -10
58 -10 27 1 30 2 16 13 -9 7 -19 22 -23 35 -4 12 -11 20 -16 17 -4 -3 -8 1 -7
8 2 64 -13 85 -139 194 -46 39 -98 91 -155 154 -38 41 -72 115 -64 138 3 11
21 28 39 36 31 15 37 15 77 -2 71 -28 176 -90 404 -238 145 -95 175 -120 324
-284 157 -172 186 -224 179 -321 -7 -89 -55 -161 -138 -205 -102 -53 -139 -68
-180 -71 -68 -6 -184 -25 -195 -34 -17 -13 -115 -32 -135 -27 -11 3 -24 -1
-31 -9 -8 -10 -23 -12 -49 -8 -27 5 -39 2 -43 -9 -3 -9 -26 -17 -61 -21 -103
-13 -253 -67 -255 -91 -1 -5 -7 -10 -14 -11 -6 0 -34 -10 -61 -22 -27 -12 -54
-22 -60 -22 -7 0 -16 -4 -22 -8 -5 -5 -40 -17 -79 -27 -38 -9 -79 -23 -90 -29
-16 -10 -124 -52 -205 -79 -8 -3 1171 -6 2621 -6 l2635 -1 100 37 c117 43 143
44 249 14 190 -54 138 -51 932 -51 l743 0 0 1935 0 1935 -22 -1 c-13 0 -45 -8
-73 -18 -37 -13 -51 -24 -55 -42 -4 -16 -8 -20 -14 -11 -10 16 -43 15 -100 -4
-78 -27 -76 -73 2 -55 56 12 54 -4 -2 -29 -24 -10 -47 -23 -50 -29 -18 -28
-26 -7 -20 52 11 110 11 112 -11 112 -17 0 -22 -12 -36 -90 -12 -61 -17 -78
-18 -52 -1 29 -5 37 -20 37 -20 0 -24 -13 -37 -123 -6 -53 -8 -58 -38 -66 -17
-4 -34 -5 -37 -2 -4 3 -3 35 1 71 5 35 6 68 4 72 -10 16 -36 8 -41 -12 -6 -23
-7 -24 -32 -9 -38 25 -150 -42 -151 -90 -1 -10 -7 -5 -16 12 -14 26 -19 28
-52 22 -20 -4 -52 -14 -71 -23 -35 -17 -35 -17 -48 -112 -15 -123 -16 -120 2
-120 19 0 35 39 35 84 0 71 11 96 48 111 19 8 37 15 40 15 4 0 -4 -118 -11
-153 -1 -7 7 -12 18 -12 14 0 21 8 25 29 4 26 6 27 19 13 16 -20 41 -21 100
-4 47 14 65 35 51 57 -7 11 -14 12 -35 2 -31 -14 -75 -16 -75 -3 0 5 22 17 50
26 27 9 57 26 65 38 16 23 17 21 19 -32 0 -18 8 -38 16 -43 24 -15 100 10 131
43 21 23 28 26 33 14 8 -21 33 -19 46 5 8 16 15 18 29 10 21 -11 91 -4 105 10
6 6 14 10 20 10 5 0 6 -3 3 -6 -3 -4 -2 -14 3 -23 7 -14 -1 -21 -43 -41 -29
-13 -56 -24 -62 -25 -5 0 -12 -11 -15 -24 -5 -23 -6 -23 -23 -7 -9 10 -17 22
-17 28 0 6 -12 -1 -26 -16 -15 -14 -37 -26 -49 -26 -12 0 -25 -3 -29 -7 -4 -4
-20 -8 -36 -8 -21 0 -36 -10 -53 -33 -13 -17 -27 -29 -31 -25 -11 12 -46 13
-46 2 0 -6 -10 -9 -22 -7 -26 3 -28 0 -28 -42 0 -23 4 -30 20 -30 11 0 28 4
38 9 27 13 84 32 117 38 16 3 42 11 57 19 15 8 30 14 33 14 37 -1 47 3 55 26
6 14 14 23 19 20 5 -4 12 0 14 6 4 8 6 7 6 -3 1 -21 23 -30 42 -18 18 11 49
12 49 0 0 -14 -131 -64 -490 -184 -190 -64 -385 -130 -435 -148 -49 -17 -142
-47 -205 -66 -63 -19 -119 -38 -125 -41 -5 -4 -15 -7 -20 -8 -26 -4 -131 -39
-143 -47 -9 -7 -1 -21 32 -57 24 -25 47 -57 51 -71 9 -26 54 -100 69 -110 5
-4 11 -30 14 -58 4 -44 1 -57 -26 -98 -17 -26 -44 -53 -59 -60 -105 -43 -133
-26 -149 92 -3 28 -14 73 -23 100 -14 44 -19 50 -44 50 -15 0 -31 5 -35 11 -4
6 -41 40 -83 76 -42 35 -98 88 -125 117 -62 67 -224 165 -274 166 -19 0 -47
-3 -62 -8 -18 -5 -31 -2 -42 8 -8 8 -19 15 -25 15 -11 0 -166 -74 -186 -89 -5
-4 -26 -14 -45 -21 -19 -7 -48 -19 -65 -26 -16 -7 -106 -38 -198 -68 -93 -31
-177 -62 -188 -69 -18 -14 -18 -15 -1 -35 18 -20 137 -80 215 -108 38 -13 38
-13 55 16 12 21 27 32 52 36 19 3 54 12 78 20 23 8 51 14 61 14 10 0 32 7 47
15 16 8 36 15 45 15 9 0 66 16 125 35 205 67 301 79 376 46 57 -25 88 -59 94
-107 7 -45 58 -128 90 -145 28 -15 44 -50 44 -100 0 -82 -44 -128 -154 -159
-39 -12 -80 -25 -91 -30 -23 -10 -66 -23 -145 -44 -30 -8 -89 -24 -130 -36
-41 -12 -97 -26 -124 -31 -27 -5 -57 -16 -65 -24 -93 -87 -98 -89 -201 -87
-70 1 -73 5 -36 45 30 32 70 176 61 218 -12 53 -44 48 -144 -23 -48 -34 -62
-50 -67 -77 -4 -18 -2 -36 3 -40 19 -13 43 -56 43 -77 0 -13 -14 -34 -32 -49
-26 -22 -37 -25 -67 -20 -19 4 -47 13 -61 20 -32 17 -90 66 -90 77 0 5 -15 30
-33 56 -19 26 -37 61 -41 77 -8 34 -54 105 -68 105 -14 0 -98 62 -134 99 -26
27 -34 43 -33 70 1 51 19 94 59 146 44 55 83 75 150 75 41 0 50 3 42 13 -5 6
-13 26 -16 44 -6 26 -3 34 16 47 27 18 189 72 463 155 311 94 310 94 429 71
106 -21 172 -42 270 -85 34 -15 72 -25 90 -23 l31 3 6 75 c12 139 44 218 132
322 83 97 71 92 652 272 258 81 379 119 510 161 72 23 237 75 367 116 l238 74
0 213 c0 163 -3 212 -12 211 -7 0 -35 -9 -63 -20z m34 -661 c-2 -37 -26 -128
-32 -122 -4 4 -7 -3 -7 -15 0 -12 -4 -20 -9 -16 -5 3 -12 -3 -15 -12 -3 -10
-3 18 0 62 4 64 9 83 26 98 24 20 38 22 37 5z m-362 -160 c-3 -7 -5 -2 -5 12
0 14 2 19 5 13 2 -7 2 -19 0 -25z m163 13 c0 -11 -39 -21 -45 -11 -2 4 -2 10
2 14 10 9 43 7 43 -3z m-390 -36 c0 -14 -69 -40 -79 -29 -9 9 39 44 60 44 10
0 19 -7 19 -15z m565 5 c3 -5 1 -10 -4 -10 -6 0 -11 5 -11 10 0 6 2 10 4 10 3
0 8 -4 11 -10z m-98 -40 c1 -11 -2 -22 -8 -25 -5 -3 -6 1 -3 10 5 11 2 14 -10
9 -12 -5 -15 -2 -10 10 9 22 29 20 31 -4z m-600 -57 c-3 -10 -5 -4 -5 12 0 17
2 24 5 18 2 -7 2 -21 0 -30z m740 -49 c-3 -3 -12 -4 -19 -1 -8 3 -5 6 6 6 11
1 17 -2 13 -5z m-131 -43 c-6 -9 -56 -22 -56 -14 0 4 40 21 53 22 5 1 6 -3 3
-8z m-6826 -1281 c0 -5 -4 -10 -10 -10 -5 0 -10 5 -10 10 0 6 5 10 10 10 6 0
10 -4 10 -10z m20 -50 c0 -39 -13 -53 -23 -26 -5 12 12 66 21 66 1 0 2 -18 2
-40z m-1822 -264 c57 -30 103 -113 100 -181 0 -25 -5 -45 -10 -45 -4 0 -8 -6
-8 -12 0 -7 -17 -21 -36 -31 -30 -15 -35 -15 -31 -3 5 12 0 14 -26 11 -18 -3
-26 -3 -19 1 6 3 9 11 5 17 -4 6 -5 32 -4 58 1 25 -4 62 -11 80 -14 37 -15 61
-3 97 9 26 8 26 43 8z m7078 -1084 c-5 -4 -86 162 -86 176 1 4 21 -33 46 -82
24 -49 42 -91 40 -94z m85 -129 c13 -16 12 -17 -3 -4 -17 13 -22 21 -14 21 2
0 10 -8 17 -17z m-12394 -115 c-3 -8 -6 -5 -6 6 -1 11 2 17 5 13 3 -3 4 -12 1
-19z m12719 -220 c96 -63 198 -109 312 -140 99 -26 321 -36 441 -19 95 14 316
69 400 100 73 27 75 21 3 -12 -292 -132 -661 -163 -912 -76 -195 67 -385 203
-483 344 -11 17 19 -8 66 -55 48 -47 126 -111 173 -142z m-5106 22 c0 -5 -4
-10 -10 -10 -5 0 -10 5 -10 10 0 6 5 10 10 10 6 0 10 -4 10 -10z"/>
<path d="M13015 4240 c-3 -5 1 -10 9 -10 9 0 16 5 16 10 0 6 -4 10 -9 10 -6 0
-13 -4 -16 -10z"/>
<path d="M3705 3865 c-5 -2 -73 -17 -150 -35 -77 -18 -275 -65 -440 -105 -165
-41 -354 -86 -420 -101 -66 -15 -169 -40 -230 -56 -60 -16 -144 -36 -186 -44
-42 -8 -169 -39 -282 -68 -114 -30 -262 -66 -329 -81 -68 -14 -195 -43 -283
-65 -88 -21 -232 -55 -320 -75 -167 -38 -366 -91 -400 -106 -27 -11 -129 -39
-185 -49 -25 -5 -56 -13 -70 -19 -48 -19 49 -12 125 10 39 11 99 24 135 29 36
6 97 15 135 21 39 5 115 21 170 34 55 13 138 33 185 44 355 84 581 140 715
176 55 15 132 33 170 41 39 7 142 31 230 53 88 21 194 47 235 56 41 9 129 30
195 47 66 16 140 34 165 40 25 5 90 20 145 32 55 13 143 33 195 45 52 11 154
34 225 50 72 16 157 35 190 41 71 14 127 45 123 69 -3 15 -23 23 -43 16z"/>
<path d="M9215 3680 c-22 -11 -60 -22 -85 -25 -66 -9 -119 -23 -270 -71 -74
-24 -196 -59 -270 -79 -74 -20 -173 -47 -220 -60 -47 -13 -121 -31 -165 -40
-44 -9 -114 -27 -155 -41 -88 -28 -394 -104 -421 -104 -10 0 -33 -6 -51 -14
-18 -8 -76 -24 -128 -36 -52 -12 -144 -35 -205 -51 -60 -15 -162 -40 -225 -54
-63 -15 -142 -33 -175 -41 -33 -8 -134 -27 -225 -44 -91 -16 -193 -36 -227
-45 -34 -8 -79 -15 -102 -15 -22 0 -43 -4 -46 -10 -3 -5 -21 -10 -40 -10 -19
0 -37 -5 -41 -11 -3 -6 -19 -9 -35 -7 -16 3 -29 1 -29 -3 0 -7 -33 -15 -253
-66 -54 -12 -73 -20 -60 -25 11 -4 0 -6 -27 -5 -25 1 -67 0 -95 -2 l-50 -3 40
-8 c22 -5 159 -6 305 -4 246 4 353 11 680 49 172 19 325 33 455 40 115 7 165
-2 165 -30 0 -8 5 -15 10 -15 6 0 10 4 10 8 0 5 12 7 28 5 15 -3 45 0 67 5 57
14 407 109 485 132 36 11 126 35 200 55 490 127 757 205 757 221 0 8 -4 14 -9
14 -4 0 -7 5 -6 12 4 15 -28 15 -65 0 -16 -7 -37 -12 -47 -12 -10 0 -22 -5
-25 -11 -4 -6 -13 -8 -21 -5 -7 3 -16 1 -19 -4 -4 -6 -18 -10 -33 -10 -19 0
-23 -3 -13 -9 9 -6 0 -9 -27 -9 -23 0 -49 -5 -59 -10 -10 -5 -38 -13 -63 -17
-25 -4 -49 -10 -55 -13 -5 -3 -16 -7 -25 -8 -45 -7 -189 -48 -186 -53 2 -3
-17 -7 -42 -9 -26 -2 -54 -9 -62 -17 -9 -8 -30 -15 -47 -17 -27 -2 -30 -5 -20
-17 10 -12 9 -13 -11 -2 -13 7 -26 10 -30 7 -3 -3 -2 -6 3 -6 4 0 2 -7 -5 -15
-7 -8 -18 -15 -24 -15 -6 0 -4 5 4 10 23 15 3 12 -28 -4 -23 -12 -60 -20 -147
-31 -11 -2 -33 -8 -48 -14 -16 -6 -33 -9 -38 -5 -5 3 -9 0 -9 -6 0 -7 -7 -10
-15 -6 -8 3 -14 0 -12 -6 1 -7 -19 -12 -54 -13 -31 -2 -82 -12 -115 -23 -54
-19 -151 -42 -174 -42 -42 0 61 50 135 66 17 3 71 19 120 34 50 16 167 49 260
74 94 26 235 65 315 87 80 23 170 48 200 56 30 8 82 24 115 34 98 30 241 67
380 99 50 12 140 44 200 72 61 27 143 65 183 84 l72 33 0 76 c0 41 -3 75 -7
74 -5 0 -26 -9 -48 -19z"/>
<path d="M14668 3504 c-44 -14 -81 -32 -87 -42 -5 -9 -14 -69 -21 -132 -18
-175 -19 -165 9 -162 14 1 26 4 27 5 2 1 8 54 15 117 7 63 16 120 21 126 4 6
29 17 54 24 58 16 69 7 55 -46 -5 -22 -11 -68 -12 -104 -3 -60 -1 -65 18 -68
28 -4 40 39 49 175 10 145 5 149 -128 107z"/>
<path d="M9420 3438 c-19 -6 -30 -12 -24 -14 5 -3 28 2 50 10 45 17 26 19 -26
4z"/>
<path d="M14840 3430 c-21 -21 -26 -55 -10 -65 17 -10 49 5 55 26 7 22 -2 59
-16 59 -5 0 -18 -9 -29 -20z"/>
<path d="M14961 3404 c0 -11 3 -14 6 -6 3 7 2 16 -1 19 -3 4 -6 -2 -5 -13z"/>
<path d="M14329 3370 c-97 -51 -177 -231 -135 -304 23 -41 38 -47 110 -42 57
4 76 10 104 34 48 38 53 59 7 27 -21 -14 -43 -25 -50 -25 -29 0 -64 43 -79 94
-14 46 -19 53 -36 49 -11 -3 -20 0 -20 6 0 6 4 11 8 11 5 0 14 10 20 23 l11
22 0 -23 c1 -27 19 -25 35 4 6 10 14 21 18 24 3 3 10 18 13 33 4 15 12 31 19
35 6 4 17 17 24 30 16 28 2 29 -49 2z m-79 -257 c0 -7 -4 -13 -10 -13 -5 0
-10 12 -10 28 0 21 2 24 10 12 5 -8 10 -21 10 -27z"/>
<path d="M14661 3364 c-25 -32 -26 -38 -6 -54 12 -10 20 -9 40 4 25 17 30 31
19 60 -9 24 -30 19 -53 -10z"/>
<path d="M3792 3350 c-12 -5 -41 -27 -63 -49 -23 -21 -60 -46 -82 -54 -72 -26
-145 -47 -161 -47 -9 0 -16 -4 -16 -10 0 -5 -17 -12 -37 -16 -21 -3 -60 -13
-88 -21 -27 -8 -72 -18 -100 -22 -102 -16 -222 -42 -290 -63 -38 -12 -74 -21
-78 -20 -5 2 -37 -5 -70 -14 -34 -9 -82 -20 -107 -24 -73 -12 -213 -50 -235
-64 -27 -17 -120 -41 -240 -61 -55 -10 -108 -21 -117 -26 -9 -5 -46 -13 -81
-18 -36 -5 -80 -16 -99 -24 -18 -9 -60 -21 -93 -27 -33 -6 -106 -22 -161 -36
-56 -13 -110 -24 -120 -24 -11 0 -48 -14 -82 -30 -35 -17 -78 -33 -95 -36 -18
-3 -54 -11 -82 -19 -27 -7 -84 -19 -125 -25 -172 -25 -216 -34 -241 -46 -14
-7 -65 -22 -115 -33 -49 -12 -114 -28 -144 -35 -30 -8 -93 -20 -140 -27 -111
-16 -127 -28 -91 -65 50 -50 140 -132 175 -159 21 -16 58 -46 81 -66 23 -20
60 -47 81 -60 22 -13 45 -29 52 -36 8 -7 23 -18 35 -24 11 -7 26 -16 31 -21
27 -23 260 -185 349 -243 21 -14 42 -25 47 -25 6 0 10 -4 10 -9 0 -5 8 -11 18
-15 24 -8 49 -25 112 -76 90 -73 120 -108 120 -141 0 -26 -2 -28 -19 -20 -15
8 -25 6 -47 -12 -57 -45 -183 -9 -269 77 -37 37 -75 62 -75 49 0 -4 14 -17 30
-28 16 -11 30 -25 30 -31 0 -17 79 -103 109 -118 40 -21 148 -29 511 -40 167
-6 216 1 295 39 28 13 118 43 200 65 83 23 159 45 170 50 67 31 247 70 324 70
34 0 131 24 346 85 129 36 224 62 350 95 61 16 142 38 180 50 39 12 101 30
138 39 83 22 114 45 50 38 -24 -2 -50 -11 -59 -18 -12 -10 -53 -15 -141 -16
-104 -2 -128 -5 -151 -21 -15 -11 -43 -23 -62 -27 -39 -7 -86 -21 -140 -40
-19 -7 -62 -16 -95 -20 -32 -3 -67 -10 -76 -15 -9 -5 -19 -7 -21 -4 -3 2 -18
-1 -34 -7 -34 -13 -192 -39 -284 -46 -62 -5 -66 -4 -79 21 -11 19 -11 29 -3
39 9 10 9 28 3 63 -6 30 -6 50 0 52 5 2 9 9 9 16 0 28 38 48 170 93 25 8 73
28 107 44 34 16 64 29 68 29 7 0 179 67 203 79 9 5 35 18 57 29 22 11 64 27
94 36 29 9 59 20 65 25 6 5 36 16 66 24 87 25 95 40 109 193 7 72 16 148 21
170 5 21 10 62 10 89 0 54 31 267 40 275 3 3 18 52 33 110 15 58 35 129 43
159 21 75 14 90 -34 71z m-2138 -1816 c9 10 18 6 41 -17 17 -16 24 -26 18 -23
-8 4 -13 1 -13 -7 0 -22 -37 -9 -60 21 -11 13 -20 30 -19 36 0 6 5 3 12 -6 8
-13 13 -14 21 -4z"/>
<path d="M15220 3319 c0 -6 -7 -9 -15 -6 -8 4 -27 0 -42 -8 -15 -8 -36 -15
-45 -15 -9 0 -19 -4 -23 -10 -3 -5 -12 -7 -20 -3 -9 3 -15 -1 -15 -11 0 -9 -4
-16 -10 -16 -5 0 -10 -12 -10 -26 0 -20 4 -25 16 -20 9 3 20 6 25 6 4 0 13 15
18 33 7 24 9 26 10 10 1 -24 16 -39 26 -24 3 6 12 8 19 5 9 -3 18 5 24 23 6
16 11 21 11 11 1 -18 33 -19 63 -2 13 7 16 16 10 34 -7 25 -42 41 -42 19z"/>
<path d="M15291 3294 c0 -11 3 -14 6 -6 3 7 2 16 -1 19 -3 4 -6 -2 -5 -13z"/>
<path d="M14378 3274 c-32 -17 -58 -62 -58 -98 0 -32 32 -51 60 -36 14 7 20 7
20 0 0 -16 30 -12 36 5 4 8 2 21 -4 28 -12 14 -4 67 10 67 5 0 6 -10 3 -22 -5
-18 -4 -20 4 -8 16 22 14 70 -3 70 -8 0 -20 2 -28 5 -7 2 -25 -2 -40 -11z"/>
<path d="M8838 3273 c7 -3 16 -2 19 1 4 3 -2 6 -13 5 -11 0 -14 -3 -6 -6z"/>
<path d="M14480 3261 c0 -5 5 -13 10 -16 6 -3 10 -2 10 4 0 5 -4 13 -10 16 -5
3 -10 2 -10 -4z"/>
<path d="M328 3023 c7 -3 16 -2 19 1 4 3 -2 6 -13 5 -11 0 -14 -3 -6 -6z"/>
<path d="M13725 2617 c-16 -7 -32 -15 -35 -18 -3 -4 -25 -9 -50 -12 -61 -6
-150 -39 -150 -55 0 -9 -10 -13 -27 -11 -33 2 -59 -8 -90 -35 -22 -19 -31 -46
-15 -46 4 0 16 -13 25 -30 10 -16 22 -30 27 -30 13 0 42 58 35 70 -7 11 38 60
54 60 7 0 31 9 53 20 23 11 56 20 74 20 18 0 36 4 39 10 3 5 19 7 36 3 24 -4
28 -3 23 10 -4 12 2 16 28 19 22 2 34 9 36 21 4 20 -17 21 -63 4z"/>
<path d="M13825 2610 c3 -5 8 -10 11 -10 2 0 4 5 4 10 0 6 -5 10 -11 10 -5 0
-7 -4 -4 -10z"/>
<path d="M0 2476 l0 -63 98 -84 c53 -46 102 -88 108 -94 13 -12 31 -27 174
-150 58 -49 110 -94 116 -100 55 -52 141 -123 165 -136 27 -15 33 -15 84 0 49
14 53 18 38 28 -19 14 -48 36 -84 66 -12 9 -28 17 -35 17 -8 0 -30 16 -50 35
-19 19 -38 35 -40 35 -3 0 -10 4 -17 10 -56 45 -76 60 -84 60 -4 0 -22 16 -38
35 -17 19 -36 35 -42 35 -7 0 -13 5 -13 10 0 15 -64 80 -78 80 -6 0 -15 6 -19
14 -4 7 -37 38 -73 67 -35 30 -78 69 -95 88 -46 53 -104 111 -110 111 -3 0 -5
-29 -5 -64z"/>
<path d="M8418 2533 c7 -3 16 -2 19 1 4 3 -2 6 -13 5 -11 0 -14 -3 -6 -6z"/>
<path d="M8266 2438 c-22 -5 -44 -13 -50 -18 -7 -5 -31 -11 -56 -14 -101 -12
-137 -18 -168 -28 -18 -5 -43 -11 -55 -13 -25 -3 -132 -39 -189 -63 -39 -16
-50 -32 -23 -32 8 0 15 -4 15 -8 0 -15 97 -34 136 -27 22 4 89 20 149 36 61
15 153 39 205 52 103 26 98 20 82 93 -7 29 -8 30 -46 22z"/>
<path d="M4880 2211 c0 -5 9 -7 20 -4 11 3 20 7 20 9 0 2 -9 4 -20 4 -11 0
-20 -4 -20 -9z"/>
<path d="M4792 2190 c-73 -20 -95 -36 -37 -25 58 10 115 29 115 37 0 10 -1 10
-78 -12z"/>
<path d="M4670 2161 c-27 -15 -85 -31 -135 -37 -28 -4 -60 -12 -71 -20 -12 -7
-53 -18 -90 -25 -67 -11 -94 -22 -82 -35 6 -5 135 23 153 35 6 3 39 13 75 23
150 38 190 51 190 59 0 11 -20 11 -40 0z"/>
<path d="M4238 2043 c-16 -2 -28 -9 -28 -15 0 -12 49 -2 65 13 6 6 6 8 0 8 -6
-1 -22 -4 -37 -6z"/>
</g>
</svg>
